<svg id="Layer_1" data-name="Layer 1" xmlns="http://www.w3.org/2000/svg" width="727.21" height="58.5" viewBox="0 0 727.21 58.5"><defs><style>.cls-1{opacity:0.15;}</style></defs><g class="cls-1"><path d="M62.53,38.84c.28,1.31-.47,1.91-1.68,1.34a5.15,5.15,0,0,0-4.29.19c-1.15.67-2,.13-1.78-1.19a5.2,5.2,0,0,0-1.51-4c-1-.89-.73-1.82.58-2.06a5.19,5.19,0,0,0,3.36-2.67c.53-1.22,1.5-1.27,2.14-.1a5.16,5.16,0,0,0,3.58,2.37c1.32.14,1.66,1,.75,2A5.16,5.16,0,0,0,62.53,38.84Z" transform="translate(-36.02 -7.19)"/></g><g class="cls-1"><path d="M761.68,34.7c.26,1.22-.45,1.78-1.57,1.25a4.84,4.84,0,0,0-4,.18c-1.08.62-1.83.12-1.67-1.11A4.87,4.87,0,0,0,753,31.26c-.93-.83-.69-1.7.54-1.93a4.85,4.85,0,0,0,3.14-2.5c.5-1.14,1.4-1.18,2-.08A4.87,4.87,0,0,0,762.05,29c1.24.13,1.55,1,.7,1.88A4.79,4.79,0,0,0,761.68,34.7Z" transform="translate(-36.02 -7.19)"/><path d="M728.63,14.46c0,.15,0,.21-.18.15a.61.61,0,0,0-.48,0c-.13.07-.22,0-.2-.13a.55.55,0,0,0-.17-.45c-.11-.1-.08-.2.07-.23a.58.58,0,0,0,.37-.3c.06-.13.17-.14.24,0a.6.6,0,0,0,.4.27c.15,0,.18.11.08.22A.6.6,0,0,0,728.63,14.46Z" transform="translate(-36.02 -7.19)"/><path d="M678.65,19c.26,1.2-.44,1.75-1.55,1.23a4.74,4.74,0,0,0-3.93.17c-1.06.61-1.8.13-1.65-1.09a4.71,4.71,0,0,0-1.38-3.69c-.91-.82-.67-1.67.53-1.9a4.79,4.79,0,0,0,3.09-2.45c.49-1.12,1.38-1.16,2-.09A4.73,4.73,0,0,0,679,13.34c1.22.12,1.53.95.69,1.84A4.76,4.76,0,0,0,678.65,19Z" transform="translate(-36.02 -7.19)"/><path d="M441.18,30.63c.21,1-.36,1.43-1.26,1a3.93,3.93,0,0,0-3.22.14c-.86.5-1.46.11-1.34-.89a3.84,3.84,0,0,0-1.13-3c-.74-.67-.55-1.37.43-1.55a3.87,3.87,0,0,0,2.52-2c.41-.91,1.13-.94,1.61-.07A3.88,3.88,0,0,0,441.48,26c1,.1,1.24.78.56,1.51A3.87,3.87,0,0,0,441.18,30.63Z" transform="translate(-36.02 -7.19)"/><path d="M351.31,63.92c.28,1.27-.46,1.86-1.65,1.31a5.05,5.05,0,0,0-4.2.18c-1.13.66-1.92.13-1.75-1.16a5.07,5.07,0,0,0-1.48-3.94c-1-.87-.72-1.79.57-2a5.07,5.07,0,0,0,3.29-2.62c.53-1.19,1.47-1.24,2.1-.09a5.06,5.06,0,0,0,3.51,2.32c1.3.13,1.63,1,.74,2A5.07,5.07,0,0,0,351.31,63.92Z" transform="translate(-36.02 -7.19)"/><path d="M336.22,19.65c.25,1.18-.44,1.73-1.53,1.21a4.76,4.76,0,0,0-3.91.17c-1,.61-1.78.13-1.63-1.08a4.72,4.72,0,0,0-1.37-3.66c-.9-.81-.67-1.65.53-1.88A4.7,4.7,0,0,0,331.36,12c.49-1.11,1.37-1.15,2-.09a4.69,4.69,0,0,0,3.26,2.16c1.2.12,1.51.95.68,1.83A4.71,4.71,0,0,0,336.22,19.65Z" transform="translate(-36.02 -7.19)"/><path d="M276.18,20c.14.61-.22.9-.79.63a2.44,2.44,0,0,0-2,.09c-.54.31-.92.06-.84-.56a2.44,2.44,0,0,0-.71-1.9c-.47-.42-.35-.86.27-1A2.49,2.49,0,0,0,273.67,16c.25-.58.71-.6,1-.05a2.4,2.4,0,0,0,1.69,1.12c.63.07.79.49.36.95A2.44,2.44,0,0,0,276.18,20Z" transform="translate(-36.02 -7.19)"/></g><g class="cls-1"><path d="M689.09,63.77c.23,1.07-.39,1.57-1.38,1.1a4.24,4.24,0,0,0-3.52.15c-1,.55-1.61.12-1.47-1a4.23,4.23,0,0,0-1.24-3.3c-.81-.73-.6-1.5.48-1.7a4.24,4.24,0,0,0,2.75-2.19c.44-1,1.24-1,1.76-.08a4.27,4.27,0,0,0,2.94,1.95c1.09.11,1.37.85.62,1.65A4.2,4.2,0,0,0,689.09,63.77Z" transform="translate(-36.02 -7.19)"/><path d="M572.71,44.49c.2.93-.34,1.36-1.21,1a3.72,3.72,0,0,0-3.08.13c-.83.48-1.41.1-1.28-.85a3.75,3.75,0,0,0-1.08-2.89c-.72-.64-.53-1.3.41-1.48a3.73,3.73,0,0,0,2.41-1.92c.39-.88,1.08-.91,1.54-.07a3.7,3.7,0,0,0,2.57,1.7c1,.1,1.2.75.54,1.45A3.7,3.7,0,0,0,572.71,44.49Z" transform="translate(-36.02 -7.19)"/><path d="M527.21,48.52c.21,1-.36,1.41-1.25,1a3.84,3.84,0,0,0-3.18.14c-.85.5-1.45.1-1.33-.88a3.81,3.81,0,0,0-1.11-3c-.74-.66-.55-1.35.43-1.54a3.82,3.82,0,0,0,2.49-2c.4-.9,1.11-.93,1.59-.06A3.84,3.84,0,0,0,527.5,44c1,.1,1.23.77.56,1.49A3.83,3.83,0,0,0,527.21,48.52Z" transform="translate(-36.02 -7.19)"/><path d="M491.82,15.13c.23,1.11-.41,1.62-1.43,1.14a4.41,4.41,0,0,0-3.64.15c-1,.57-1.66.12-1.51-1A4.38,4.38,0,0,0,484,12c-.84-.75-.62-1.54.49-1.75A4.4,4.4,0,0,0,487.3,8c.45-1,1.27-1.07,1.82-.08a4.38,4.38,0,0,0,3,2c1.13.12,1.41.88.64,1.71A4.36,4.36,0,0,0,491.82,15.13Z" transform="translate(-36.02 -7.19)"/><path d="M421.17,49.28c.09.44-.16.64-.57.45a1.81,1.81,0,0,0-1.46.06c-.4.23-.67.05-.61-.4A1.76,1.76,0,0,0,418,48c-.34-.3-.25-.61.19-.7a1.76,1.76,0,0,0,1.15-.91c.18-.41.51-.43.72,0a1.79,1.79,0,0,0,1.22.81c.45,0,.57.35.26.68A1.75,1.75,0,0,0,421.17,49.28Z" transform="translate(-36.02 -7.19)"/><path d="M366.54,43.13c.12.54-.2.79-.7.56a2.15,2.15,0,0,0-1.79.07c-.48.28-.82.06-.75-.49a2.18,2.18,0,0,0-.62-1.68c-.42-.37-.31-.76.24-.86a2.21,2.21,0,0,0,1.4-1.12c.22-.51.62-.52.89,0a2.14,2.14,0,0,0,1.5,1c.55.06.69.44.31.84A2.17,2.17,0,0,0,366.54,43.13Z" transform="translate(-36.02 -7.19)"/><path d="M312.74,49.46c.18.85-.31,1.24-1.09.87a3.36,3.36,0,0,0-2.79.12c-.75.44-1.27.09-1.16-.77a3.44,3.44,0,0,0-1-2.62c-.65-.57-.48-1.18.37-1.34A3.39,3.39,0,0,0,309.28,44c.35-.79,1-.82,1.39-.06A3.39,3.39,0,0,0,313,45.46c.86.09,1.08.68.49,1.31A3.36,3.36,0,0,0,312.74,49.46Z" transform="translate(-36.02 -7.19)"/><path d="M263,57.65c.12.57-.21.83-.73.58a2.24,2.24,0,0,0-1.86.08c-.5.29-.85.06-.77-.51a2.21,2.21,0,0,0-.66-1.74c-.43-.39-.31-.79.25-.9A2.25,2.25,0,0,0,260.68,54c.23-.53.65-.54.93,0a2.24,2.24,0,0,0,1.55,1c.57.06.72.45.32.87A2.23,2.23,0,0,0,263,57.65Z" transform="translate(-36.02 -7.19)"/><path d="M179,23.34c.23,1.06-.39,1.55-1.37,1.09a4.25,4.25,0,0,0-3.49.15c-.94.55-1.6.12-1.46-1a4.22,4.22,0,0,0-1.22-3.28c-.81-.72-.6-1.48.46-1.68a4.23,4.23,0,0,0,2.74-2.18c.44-1,1.23-1,1.75-.08a4.2,4.2,0,0,0,2.91,1.94c1.08.1,1.36.84.62,1.63A4.2,4.2,0,0,0,179,23.34Z" transform="translate(-36.02 -7.19)"/><path d="M42.81,23.52c.19.89-.33,1.31-1.16.92a3.54,3.54,0,0,0-2.95.12c-.79.47-1.35.1-1.23-.81a3.58,3.58,0,0,0-1-2.77c-.68-.61-.5-1.25.4-1.42a3.56,3.56,0,0,0,2.31-1.84c.37-.84,1-.87,1.48-.06a3.57,3.57,0,0,0,2.46,1.63c.91.09,1.14.71.52,1.38A3.55,3.55,0,0,0,42.81,23.52Z" transform="translate(-36.02 -7.19)"/></g><g class="cls-1"><path d="M122.66,52.18c.16.75-.27,1.09-1,.77a3,3,0,0,0-2.45.1c-.65.39-1.11.08-1-.67a2.94,2.94,0,0,0-.86-2.3c-.56-.51-.42-1,.33-1.18a3,3,0,0,0,1.92-1.53c.31-.69.86-.72,1.22,0a2.94,2.94,0,0,0,2,1.35c.76.08,1,.6.43,1.15A3,3,0,0,0,122.66,52.18Z" transform="translate(-36.02 -7.19)"/></g><g class="cls-1"><path d="M622.91,59c.11.53-.19.77-.68.54a2.06,2.06,0,0,0-1.73.08c-.46.27-.79.05-.72-.48a2.06,2.06,0,0,0-.6-1.62c-.4-.36-.3-.74.23-.84a2.08,2.08,0,0,0,1.35-1.07c.22-.5.61-.51.87,0a2,2,0,0,0,1.44,1c.53.06.67.42.3.81A2.11,2.11,0,0,0,622.91,59Z" transform="translate(-36.02 -7.19)"/></g><g class="cls-1"><path d="M596.41,16.13c.25,1.18-.43,1.73-1.53,1.21a4.72,4.72,0,0,0-3.89.17c-1,.61-1.77.13-1.62-1.07A4.71,4.71,0,0,0,588,12.79c-.9-.81-.67-1.65.52-1.88a4.63,4.63,0,0,0,3-2.42c.49-1.11,1.37-1.14,1.95-.08a4.67,4.67,0,0,0,3.25,2.14c1.2.13,1.51.95.68,1.83A4.68,4.68,0,0,0,596.41,16.13Z" transform="translate(-36.02 -7.19)"/></g></svg>