<svg id="Layer_1" data-name="Layer 1" xmlns="http://www.w3.org/2000/svg" width="692.37" height="1361.72" viewBox="0 0 692.37 1361.72"><defs><style>.cls-1{opacity:0.35;}.cls-2{fill:#666;}</style></defs><title>background2</title><g class="cls-1"><path class="cls-2" d="M140,67.1c0-2.87-4.37-5.21-9.71-5.21s-9.72-3.49-9.72-7.76-2.34-7.77-5.2-7.77-5.21,3.5-5.21,7.77-4.37,7.76-9.71,7.76S90.7,64.23,90.7,67.1s4.37,5.2,9.72,5.2,9.71,6.73,9.71,15,2.34,14.94,5.21,14.94,5.2-6.72,5.2-14.94,4.38-15,9.72-15S140,70,140,67.1Z" transform="translate(-9.31 -19.14)"/><path class="cls-2" d="M70.41,467.71c0-2.86-4.37-5.21-9.71-5.21S51,459,51,454.74,48.64,447,45.77,447s-5.2,3.5-5.2,7.77-4.37,7.76-9.72,7.76-9.71,2.35-9.71,5.21,4.37,5.2,9.71,5.2,9.72,6.73,9.72,14.95,2.34,14.94,5.2,14.94S51,496.08,51,487.86s4.37-14.95,9.72-14.95S70.41,470.57,70.41,467.71Z" transform="translate(-9.31 -19.14)"/><path class="cls-2" d="M574.87,102.65a8.87,8.87,0,0,0-8.73-9c-4.8,0-8.73-4.37-8.73-9.71s-4-9.7-9-9.7-9,4.36-9,9.7-3.93,9.71-8.74,9.71a9,9,0,0,0,0,17.92c4.81,0,8.74,4.37,8.74,9.7s4,9.71,9,9.71,9-4.37,9-9.71,3.93-9.7,8.73-9.7A8.87,8.87,0,0,0,574.87,102.65Z" transform="translate(-9.31 -19.14)"/><path class="cls-2" d="M638.88,1352.5a8.87,8.87,0,0,0-8.73-9c-4.8,0-8.73-4.37-8.73-9.71s-4-9.7-9-9.7-9,4.36-9,9.7-3.93,9.71-8.74,9.71a9,9,0,0,0,0,17.92c4.81,0,8.74,4.37,8.74,9.7s4,9.71,9,9.71,9-4.37,9-9.71,3.93-9.7,8.73-9.7A8.87,8.87,0,0,0,638.88,1352.5Z" transform="translate(-9.31 -19.14)"/><path class="cls-2" d="M375.92,774.4a8.88,8.88,0,0,0-8.73-9c-4.81,0-8.74-4.36-8.74-9.7s-4-9.71-9-9.71-9,4.37-9,9.71-3.93,9.7-8.73,9.7a9,9,0,0,0,0,17.93c4.8,0,8.73,4.36,8.73,9.7s4,9.7,9,9.7,9-4.36,9-9.7,3.93-9.7,8.74-9.7A8.88,8.88,0,0,0,375.92,774.4Z" transform="translate(-9.31 -19.14)"/><path class="cls-2" d="M367.36,148.22a6,6,0,0,0-5.9-6.06c-3.25,0-5.91-3-5.91-6.57a6.08,6.08,0,1,0-12.12,0c0,3.61-2.66,6.57-5.9,6.57a6.06,6.06,0,0,0,0,12.12c3.24,0,5.9,2.95,5.9,6.56a6.08,6.08,0,1,0,12.12,0c0-3.61,2.66-6.56,5.91-6.56A6,6,0,0,0,367.36,148.22Z" transform="translate(-9.31 -19.14)"/><path class="cls-2" d="M241.09,617a6,6,0,0,0-5.91-6.06c-3.25,0-5.91-2.95-5.91-6.56a6.08,6.08,0,1,0-12.12,0c0,3.61-2.66,6.56-5.9,6.56a6.06,6.06,0,0,0,0,12.12c3.24,0,5.9,3,5.9,6.57a6.08,6.08,0,1,0,12.12,0c0-3.61,2.66-6.57,5.91-6.57A6,6,0,0,0,241.09,617Z" transform="translate(-9.31 -19.14)"/><path class="cls-2" d="M701.68,895.79a6,6,0,0,0-5.91-6.06c-3.24,0-5.9-3-5.9-6.56a6.08,6.08,0,1,0-12.12,0c0,3.61-2.66,6.56-5.91,6.56a6.06,6.06,0,0,0,0,12.12c3.25,0,5.91,2.95,5.91,6.56a6.08,6.08,0,1,0,12.12,0c0-3.61,2.66-6.56,5.9-6.56A6,6,0,0,0,701.68,895.79Z" transform="translate(-9.31 -19.14)"/><path class="cls-2" d="M252.32,1133.49a6,6,0,0,0-5.91-6.06c-3.24,0-5.9-3-5.9-6.56a6.08,6.08,0,1,0-12.12,0c0,3.61-2.66,6.56-5.91,6.56a6.06,6.06,0,0,0,0,12.12c3.25,0,5.91,3,5.91,6.57a6.08,6.08,0,1,0,12.12,0c0-3.61,2.66-6.57,5.9-6.57A6,6,0,0,0,252.32,1133.49Z" transform="translate(-9.31 -19.14)"/><path class="cls-2" d="M205.34,221.28c0-2.75-4.2-5-9.33-5s-9.33-4.48-9.33-10-2.25-10-5-10-5,4.48-5,10-4.2,10-9.33,10-9.33,2.25-9.33,5,4.2,5,9.33,5,9.33,5.33,9.33,11.85,2.25,11.85,5,11.85,5-5.33,5-11.85,4.2-11.85,9.33-11.85S205.34,224,205.34,221.28Z" transform="translate(-9.31 -19.14)"/><path class="cls-2" d="M216.15,430.57c0-1.37-1.92-2.48-4.26-2.48s-4.27-2.23-4.27-4.95-1-4.95-2.28-4.95-2.28,2.23-2.28,4.95-1.92,4.95-4.27,4.95-4.26,1.11-4.26,2.48,1.92,2.48,4.26,2.48,4.27,2.65,4.27,5.89,1,5.89,2.28,5.89,2.28-2.65,2.28-5.89,1.92-5.89,4.27-5.89S216.15,431.94,216.15,430.57Z" transform="translate(-9.31 -19.14)"/><path class="cls-2" d="M112.32,719.85c0-1.37-1.92-2.49-4.26-2.49s-4.27-2.22-4.27-4.94-1-4.95-2.28-4.95-2.28,2.22-2.28,4.95-1.92,4.94-4.27,4.94-4.26,1.12-4.26,2.49,1.92,2.48,4.26,2.48,4.27,2.65,4.27,5.89,1,5.89,2.28,5.89,2.28-2.65,2.28-5.89,1.92-5.89,4.27-5.89S112.32,721.21,112.32,719.85Z" transform="translate(-9.31 -19.14)"/><path class="cls-2" d="M545.68,745.7c0-2.75-4.2-5-9.33-5s-9.33-4.48-9.33-10-2.25-10-5-10-5,4.48-5,10-4.2,10-9.33,10-9.33,2.25-9.33,5,4.2,5,9.33,5S517,756,517,762.55s2.25,11.85,5,11.85,5-5.33,5-11.85,4.2-11.85,9.33-11.85S545.68,748.45,545.68,745.7Z" transform="translate(-9.31 -19.14)"/><path class="cls-2" d="M492.23,552.48c0-1.38-2.1-2.5-4.66-2.5a4.85,4.85,0,0,1-4.67-5c0-2.74-1.12-5-2.5-5s-2.5,2.24-2.5,5a4.84,4.84,0,0,1-4.66,5c-2.57,0-4.67,1.12-4.67,2.5s2.1,2.5,4.67,2.5,4.66,2.67,4.66,5.92,1.13,5.93,2.5,5.93,2.5-2.67,2.5-5.93S485,555,487.57,555,492.23,553.85,492.23,552.48Z" transform="translate(-9.31 -19.14)"/><path class="cls-2" d="M624.29,333.56c0-1.37-2.1-2.5-4.67-2.5a4.84,4.84,0,0,1-4.66-5c0-2.74-1.13-5-2.5-5s-2.5,2.24-2.5,5a4.84,4.84,0,0,1-4.67,5c-2.56,0-4.66,1.13-4.66,2.5s2.1,2.5,4.66,2.5S610,338.73,610,342s1.12,5.92,2.5,5.92,2.5-2.66,2.5-5.92,2.1-5.93,4.66-5.93S624.29,334.94,624.29,333.56Z" transform="translate(-9.31 -19.14)"/><path class="cls-2" d="M383.66,365.12c0-1.38-2.1-2.5-4.67-2.5a4.84,4.84,0,0,1-4.66-5c0-2.74-1.13-5-2.5-5s-2.5,2.24-2.5,5a4.85,4.85,0,0,1-4.67,5c-2.56,0-4.66,1.12-4.66,2.5s2.1,2.5,4.66,2.5,4.67,2.66,4.67,5.92,1.12,5.93,2.5,5.93,2.5-2.67,2.5-5.93,2.1-5.92,4.66-5.92S383.66,366.49,383.66,365.12Z" transform="translate(-9.31 -19.14)"/><path class="cls-2" d="M181.68,921.82c0-1.38-2.1-2.5-4.66-2.5a4.85,4.85,0,0,1-4.67-5c0-2.74-1.12-5-2.5-5s-2.5,2.24-2.5,5a4.84,4.84,0,0,1-4.66,5c-2.57,0-4.67,1.12-4.67,2.5s2.1,2.5,4.67,2.5,4.66,2.67,4.66,5.92,1.13,5.93,2.5,5.93,2.5-2.67,2.5-5.93,2.1-5.92,4.67-5.92S181.68,923.19,181.68,921.82Z" transform="translate(-9.31 -19.14)"/><path class="cls-2" d="M560,1138.33c0-1.38-2.1-2.5-4.67-2.5a4.84,4.84,0,0,1-4.66-5c0-2.74-1.13-5-2.5-5s-2.5,2.24-2.5,5a4.85,4.85,0,0,1-4.67,5c-2.56,0-4.66,1.12-4.66,2.5s2.1,2.5,4.66,2.5,4.67,2.67,4.67,5.93,1.12,5.92,2.5,5.92,2.5-2.67,2.5-5.92,2.1-5.93,4.66-5.93S560,1139.7,560,1138.33Z" transform="translate(-9.31 -19.14)"/><path class="cls-2" d="M288.18,1323.18c0-1.37-2.1-2.5-4.66-2.5a4.85,4.85,0,0,1-4.67-5c0-2.74-1.12-5-2.5-5s-2.5,2.24-2.5,5a4.84,4.84,0,0,1-4.66,5c-2.57,0-4.67,1.13-4.67,2.5s2.1,2.5,4.67,2.5,4.66,2.67,4.66,5.93,1.13,5.92,2.5,5.92,2.5-2.66,2.5-5.92,2.1-5.93,4.67-5.93S288.18,1324.56,288.18,1323.18Z" transform="translate(-9.31 -19.14)"/><path class="cls-2" d="M402.67,973.9c0-1.37-2.1-2.5-4.66-2.5a4.84,4.84,0,0,1-4.67-5c0-2.74-1.12-5-2.5-5s-2.5,2.24-2.5,5a4.84,4.84,0,0,1-4.66,5c-2.57,0-4.67,1.13-4.67,2.5s2.1,2.5,4.67,2.5,4.66,2.67,4.66,5.93,1.13,5.93,2.5,5.93,2.5-2.67,2.5-5.93,2.1-5.93,4.67-5.93S402.67,975.28,402.67,973.9Z" transform="translate(-9.31 -19.14)"/><path class="cls-2" d="M136.63,1253.06c0-1.38-2.1-2.5-4.67-2.5a4.84,4.84,0,0,1-4.66-5c0-2.74-1.13-5-2.5-5s-2.5,2.24-2.5,5a4.85,4.85,0,0,1-4.67,5c-2.56,0-4.66,1.12-4.66,2.5s2.1,2.5,4.66,2.5,4.67,2.66,4.67,5.92,1.12,5.93,2.5,5.93,2.5-2.67,2.5-5.93,2.1-5.92,4.66-5.92S136.63,1254.43,136.63,1253.06Z" transform="translate(-9.31 -19.14)"/></g><path class="cls-2" d="M337.85,252.39a2.85,2.85,0,0,0-2.9-2.78,3,3,0,0,1-2.9-3,3,3,0,1,0-6,0,3,3,0,0,1-2.9,3,2.78,2.78,0,1,0,0,5.55,3,3,0,0,1,2.9,3,3,3,0,1,0,6,0,3,3,0,0,1,2.9-3A2.85,2.85,0,0,0,337.85,252.39Z" transform="translate(-9.31 -19.14)"/><path class="cls-2" d="M633.07,617a2.85,2.85,0,0,0-2.9-2.77,3,3,0,0,1-2.9-3,3,3,0,1,0-6,0,3,3,0,0,1-2.9,3,2.78,2.78,0,1,0,0,5.55,3,3,0,0,1,2.9,3,3,3,0,1,0,6,0,3,3,0,0,1,2.9-3A2.85,2.85,0,0,0,633.07,617Z" transform="translate(-9.31 -19.14)"/><path class="cls-2" d="M402.67,636.17a2.84,2.84,0,0,0-2.9-2.77,3,3,0,0,1-2.91-3,3,3,0,1,0-5.95,0,3,3,0,0,1-2.91,3,2.77,2.77,0,1,0,0,5.54,3,3,0,0,1,2.91,3,3,3,0,1,0,5.95,0,3,3,0,0,1,2.91-3A2.84,2.84,0,0,0,402.67,636.17Z" transform="translate(-9.31 -19.14)"/><path class="cls-2" d="M545.68,1011.42a2.85,2.85,0,0,0-2.9-2.78,3,3,0,0,1-2.9-3,3,3,0,1,0-6,0,3,3,0,0,1-2.9,3,2.78,2.78,0,1,0,0,5.55,3,3,0,0,1,2.9,3,3,3,0,1,0,6,0,3,3,0,0,1,2.9-3A2.85,2.85,0,0,0,545.68,1011.42Z" transform="translate(-9.31 -19.14)"/><path class="cls-2" d="M86.38,1372.08a2.85,2.85,0,0,0-2.9-2.77,3,3,0,0,1-2.91-3,3,3,0,1,0-5.95,0,3,3,0,0,1-2.91,3,2.78,2.78,0,1,0,0,5.55,3,3,0,0,1,2.91,3,3,3,0,1,0,5.95,0,3,3,0,0,1,2.91-3A2.85,2.85,0,0,0,86.38,1372.08Z" transform="translate(-9.31 -19.14)"/><path class="cls-2" d="M411.45,1245.22a2.84,2.84,0,0,0-2.9-2.77,3,3,0,0,1-2.9-3,3,3,0,1,0-6,0,3,3,0,0,1-2.9,3,2.78,2.78,0,1,0,0,5.55,3,3,0,0,1,2.9,3,3,3,0,1,0,6,0,3,3,0,0,1,2.9-3A2.85,2.85,0,0,0,411.45,1245.22Z" transform="translate(-9.31 -19.14)"/><path class="cls-2" d="M496.17,1187a2.86,2.86,0,0,0-2.91-2.78,3,3,0,0,1-2.9-3,3,3,0,1,0-6,0,3,3,0,0,1-2.9,3,2.78,2.78,0,1,0,0,5.55,3,3,0,0,1,2.9,3,3,3,0,1,0,6,0,3,3,0,0,1,2.9-3A2.85,2.85,0,0,0,496.17,1187Z" transform="translate(-9.31 -19.14)"/><path class="cls-2" d="M568.93,232a2.84,2.84,0,0,0-2.9-2.77,3,3,0,0,1-2.9-3,3,3,0,1,0-6,0,3,3,0,0,1-2.9,3,2.78,2.78,0,1,0,0,5.55,3,3,0,0,1,2.9,3,3,3,0,1,0,6,0,3,3,0,0,1,2.9-3A2.85,2.85,0,0,0,568.93,232Z" transform="translate(-9.31 -19.14)"/><path class="cls-2" d="M88,309.22a2.85,2.85,0,0,0-2.9-2.77,3,3,0,0,1-2.91-3,3,3,0,1,0-6,0,3,3,0,0,1-2.91,3,2.78,2.78,0,1,0,0,5.55,3,3,0,0,1,2.91,3,3,3,0,1,0,6,0,3,3,0,0,1,2.91-3A2.85,2.85,0,0,0,88,309.22Z" transform="translate(-9.31 -19.14)"/><path class="cls-2" d="M427.83,27.93a2.86,2.86,0,0,0-2.91-2.78,3,3,0,0,1-2.9-3,3,3,0,1,0-6,0,3,3,0,0,1-2.9,3,2.78,2.78,0,1,0,0,5.55,3,3,0,0,1,2.9,3,3,3,0,1,0,6,0,3,3,0,0,1,2.9-3A2.85,2.85,0,0,0,427.83,27.93Z" transform="translate(-9.31 -19.14)"/><path class="cls-2" d="M33,1165.14c0-1.38-2.1-2.5-4.67-2.5a4.84,4.84,0,0,1-4.66-5c0-2.74-1.13-5-2.5-5s-2.5,2.24-2.5,5a4.85,4.85,0,0,1-4.67,5c-2.56,0-4.66,1.12-4.66,2.5s2.1,2.5,4.66,2.5,4.67,2.66,4.67,5.92,1.12,5.93,2.5,5.93,2.5-2.67,2.5-5.93,2.1-5.92,4.66-5.92S33,1166.51,33,1165.14Z" transform="translate(-9.31 -19.14)"/><path class="cls-2" d="M432.47,238.54a10.58,10.58,0,1,1-2.72-10.24A11.76,11.76,0,0,1,432.47,238.54Z" transform="translate(-9.31 -19.14)"/><path class="cls-2" d="M89.43,182a11.74,11.74,0,0,1-7.51,7.48,11.75,11.75,0,0,1-10.23-2.75A10.6,10.6,0,0,1,76.46,169a11.74,11.74,0,0,1,10.24,2.76A11.76,11.76,0,0,1,89.43,182Z" transform="translate(-9.31 -19.14)"/><path class="cls-2" d="M225.57,114.05a5.77,5.77,0,1,1-7.06-7.07,5.77,5.77,0,0,1,7.06,7.07Z" transform="translate(-9.31 -19.14)"/><path class="cls-2" d="M300.63,56.86a5.77,5.77,0,0,1-11.14-3,5.77,5.77,0,0,1,11.14,3Z" transform="translate(-9.31 -19.14)"/><path class="cls-2" d="M293.48,219.74a5.76,5.76,0,1,1-1.48-5.57A6.39,6.39,0,0,1,293.48,219.74Z" transform="translate(-9.31 -19.14)"/><path class="cls-2" d="M252.94,370.23a5.77,5.77,0,1,1-1.49-5.57A6.39,6.39,0,0,1,252.94,370.23Z" transform="translate(-9.31 -19.14)"/><path class="cls-2" d="M355.73,464.09a5.76,5.76,0,1,1-1.48-5.57A6.39,6.39,0,0,1,355.73,464.09Z" transform="translate(-9.31 -19.14)"/><path class="cls-2" d="M490.5,324.43a5.76,5.76,0,1,1-1.48-5.57A6.4,6.4,0,0,1,490.5,324.43Z" transform="translate(-9.31 -19.14)"/><path class="cls-2" d="M503.93,437.85a5.77,5.77,0,1,1-1.49-5.58A6.41,6.41,0,0,1,503.93,437.85Z" transform="translate(-9.31 -19.14)"/><path class="cls-2" d="M546.71,509.23a5.76,5.76,0,1,1-1.48-5.57A6.37,6.37,0,0,1,546.71,509.23Z" transform="translate(-9.31 -19.14)"/><path class="cls-2" d="M645.07,816.15a5.76,5.76,0,1,1-1.48-5.57A6.37,6.37,0,0,1,645.07,816.15Z" transform="translate(-9.31 -19.14)"/><path class="cls-2" d="M438.43,841.77a5.77,5.77,0,1,1-1.49-5.57A6.4,6.4,0,0,1,438.43,841.77Z" transform="translate(-9.31 -19.14)"/><path class="cls-2" d="M497.8,897.29a5.76,5.76,0,1,1-1.48-5.57A6.37,6.37,0,0,1,497.8,897.29Z" transform="translate(-9.31 -19.14)"/><path class="cls-2" d="M273.7,948.68a5.77,5.77,0,1,1-1.49-5.57A6.4,6.4,0,0,1,273.7,948.68Z" transform="translate(-9.31 -19.14)"/><path class="cls-2" d="M130.37,1021.7a5.77,5.77,0,1,1-1.49-5.57A6.4,6.4,0,0,1,130.37,1021.7Z" transform="translate(-9.31 -19.14)"/><path class="cls-2" d="M296.61,1059.59a5.77,5.77,0,1,1-1.49-5.57A6.39,6.39,0,0,1,296.61,1059.59Z" transform="translate(-9.31 -19.14)"/><path class="cls-2" d="M665.07,1066a5.76,5.76,0,1,1-1.48-5.57A6.39,6.39,0,0,1,665.07,1066Z" transform="translate(-9.31 -19.14)"/><path class="cls-2" d="M595.43,1263.43a5.76,5.76,0,1,1-1.48-5.57A6.4,6.4,0,0,1,595.43,1263.43Z" transform="translate(-9.31 -19.14)"/><path class="cls-2" d="M700.81,1210.92a5.77,5.77,0,1,1-1.49-5.57A6.44,6.44,0,0,1,700.81,1210.92Z" transform="translate(-9.31 -19.14)"/><path class="cls-2" d="M261.72,1254.65a5.76,5.76,0,1,1-1.48-5.57A6.37,6.37,0,0,1,261.72,1254.65Z" transform="translate(-9.31 -19.14)"/><path class="cls-2" d="M67.42,1277.5a6.37,6.37,0,0,1-4.08,4.07,5.76,5.76,0,1,1,2.6-9.64A6.38,6.38,0,0,1,67.42,1277.5Z" transform="translate(-9.31 -19.14)"/><path class="cls-2" d="M362.05,1356.87a5.77,5.77,0,1,1-1.49-5.57A6.4,6.4,0,0,1,362.05,1356.87Z" transform="translate(-9.31 -19.14)"/><path class="cls-2" d="M328.63,1263.43a5.76,5.76,0,1,1-1.48-5.57A6.4,6.4,0,0,1,328.63,1263.43Z" transform="translate(-9.31 -19.14)"/><path class="cls-2" d="M257.89,527.22a5.77,5.77,0,1,1-1.49-5.57A6.4,6.4,0,0,1,257.89,527.22Z" transform="translate(-9.31 -19.14)"/><path class="cls-2" d="M343.42,574.76a5.77,5.77,0,1,1-1.49-5.57A6.39,6.39,0,0,1,343.42,574.76Z" transform="translate(-9.31 -19.14)"/><path class="cls-2" d="M130.37,599.29a5.77,5.77,0,1,1-1.49-5.57A6.44,6.44,0,0,1,130.37,599.29Z" transform="translate(-9.31 -19.14)"/><path class="cls-2" d="M117.89,542.07a5.77,5.77,0,0,1-9.65,2.58,5.77,5.77,0,1,1,8.16-8.15A6.43,6.43,0,0,1,117.89,542.07Z" transform="translate(-9.31 -19.14)"/><path class="cls-2" d="M665.07,114.05A5.76,5.76,0,1,1,658,107a5.76,5.76,0,0,1,7.05,7.07Z" transform="translate(-9.31 -19.14)"/><path class="cls-2" d="M544.08,405a10.6,10.6,0,1,1-2.73-10.24A11.76,11.76,0,0,1,544.08,405Z" transform="translate(-9.31 -19.14)"/><path class="cls-2" d="M220.34,789a10.61,10.61,0,0,1-17.74,4.73,10.6,10.6,0,1,1,15-15A11.79,11.79,0,0,1,220.34,789Z" transform="translate(-9.31 -19.14)"/><path class="cls-2" d="M56.62,929.87a11.76,11.76,0,0,1-7.5,7.48,11.74,11.74,0,0,1-10.24-2.76,10.59,10.59,0,0,1,4.78-17.72,11.72,11.72,0,0,1,10.23,2.76A11.73,11.73,0,0,1,56.62,929.87Z" transform="translate(-9.31 -19.14)"/><path class="cls-2" d="M395.34,1128.63a10.6,10.6,0,1,1-2.73-10.24A11.76,11.76,0,0,1,395.34,1128.63Z" transform="translate(-9.31 -19.14)"/><path class="cls-2" d="M467,1366.06a10.6,10.6,0,1,1-2.73-10.24A11.72,11.72,0,0,1,467,1366.06Z" transform="translate(-9.31 -19.14)"/></svg>