<svg id="Layer_1" data-name="Layer 1" xmlns="http://www.w3.org/2000/svg" viewBox="0 0 720.23 504.36"><defs><style>.cls-1{fill:none;}.cls-2{fill:#9fcddd;}.cls-18,.cls-19,.cls-2,.cls-4{opacity:0.7;}.cls-12,.cls-13,.cls-18,.cls-19,.cls-2,.cls-23,.cls-24,.cls-25,.cls-26,.cls-27,.cls-3,.cls-4{isolation:isolate;}.cls-3{fill:#e1ecf6;}.cls-27,.cls-3{opacity:0.6;}.cls-4{fill:#71a1ad;}.cls-5{fill:#608993;}.cls-6{fill:#a6a061;}.cls-7{fill:#423e34;}.cls-8{fill:#191c21;}.cls-9{fill:#50563d;}.cls-10,.cls-18{fill:#3c3e62;}.cls-11,.cls-12,.cls-13,.cls-19,.cls-24,.cls-25,.cls-26,.cls-27{fill:#131e2b;}.cls-12{opacity:0.8;}.cls-13{opacity:0.9;}.cls-14{fill:#454742;}.cls-15{fill:#363658;}.cls-16{fill:#23233a;}.cls-17{fill:#656c55;}.cls-20{fill:#5c5f7a;}.cls-21{fill:#4e5268;}.cls-22,.cls-23{fill:#ccc381;}.cls-23,.cls-25{opacity:0.5;}.cls-24{opacity:0.4;}.cls-26{opacity:0.3;}.cls-28{fill:#7d6884;}.cls-29{fill:#705d77;}</style></defs><title>forest</title><rect class="cls-1" width="720" height="504.25"/><path class="cls-2" d="M0,362.78s12.85-1.48,15.83-3,19.72,0,19.72,0,.33-5.25,7.45-8.53,19.43-.15,19.43-.15a13.39,13.39,0,0,1,7.77,0c4.18,1.29,11.35,2.4,17.63,0s13.44-4.61,18.82-3.88,15.53,2.67,19.12-.14,11.65,15.66,19,18.61,8.52,5.17,10.91,0,16.13,5.91,23.9,13.3,11-3.54,11-3.54a43.77,43.77,0,0,1,8.76,6c7,6.06,34.06-10.56,43.62-7.6s4.78-8.13,13.14-4.43,9.56,10.74,20.31,13.5,31.07-6.86,35.85-5.38,9-2.95,15.53-2.21,21.51,17,30.77,19.94,9.86-8.13,17.63-2.95,10.15,12.55,19.71,13.29,29.28,3,41.83,0,21.5-10.34,29.87-11.08,38.23,12.58,38.23,12.58,23.93,10.84,44.22,0c8.72-4.67,7.76-13.32,25.09-11.84S636,414.49,643.76,413s20.31-11.08,32-8.86,41,12.25,44.28,6.34V489.1H0Z" transform="translate(0 0.25)"/><path class="cls-3" d="M.46,267.11s37.26,35,42.71,40.88,6.63,16.46,6.63,16.46,54.71,30.66,84.66,28,18.12,8.36,32.67,10.33c39,5.29,41.92-4.29,43.33-1.62,6,11.29-39.33,14.62-96.66,11.29S7.13,361.11.46,354.45Z" transform="translate(0 0.25)"/><path class="cls-4" d="M0,385.4s31.49,5.52,51.28,4.86,47.68.22,67.47,7.09,60.28,22.16,80.07,23.49,27-2.66,54.88,7.31,45.88,3.32,54,0,22.49-4.65,44.08,0,19.8-3.32,31.49-1.33,14.4,9.31,30.59,9.31c11.66,0,57.36-21,94.33-9.13,39,12.5,60.74-20.49,91.33-16.5s47.93,16.75,71,19.51c33.46,4,48.89-3.54,49.38-5.18s.28,49.78.28,49.78H0Z" transform="translate(0 0.25)"/><polyline class="cls-5" points="238.67 427.1 232.69 442.35 232.69 451.92 272.67 448.37 359.17 460.09 357.17 451.08 355.67 456.44 352.67 446.08 350.5 452.58 346.93 442.35 344.67 455.58 341.67 442.35 339.71 450.38 336.33 441.08 332.67 454 330.5 446.92 328.67 449.92 325.83 442.35 324.36 449.2 321.67 443.7 318.83 452.08 316 445.75 315.32 448.17 313 442.35 310.67 449.92 308.33 443.22 306.33 447.46 304.33 437.84 301.01 447.46 299.67 439.58 298 444.49 296.33 437.84 294.67 444.49 291.33 437.7 289.67 445.92 287 434.23 283.67 442.35 281 433.66 277.33 440.58 273 432.92 269.61 443.22 258.18 434.23 254.67 440.25 251.33 436.85 250 439.58 246.33 434.23 243.74 439.25 239.67 428.93"/><polyline class="cls-5" points="633.93 438.99 639.91 454.24 639.91 463.81 599.93 460.25 512.02 472.54 514.66 463.62 516.94 468.33 519.94 457.97 522.1 464.47 525.67 454.24 527.94 467.47 530.94 454.24 532.89 462.27 536.27 452.97 539.94 465.89 542.1 458.81 543.93 461.81 546.77 454.24 548.24 461.09 550.94 455.59 553.77 463.97 556.6 457.64 557.28 460.06 559.6 454.24 561.93 461.81 564.27 455.11 566.27 459.35 568.27 449.73 571.59 459.35 572.93 451.47 574.6 456.38 576.27 449.73 577.93 456.38 581.27 449.59 582.93 457.81 585.6 446.12 588.93 454.24 591.6 445.55 595.27 452.47 599.6 444.81 602.99 455.11 614.42 446.12 617.93 452.14 621.27 448.73 622.6 451.47 626.27 446.12 628.87 451.14 632.93 440.81"/><path class="cls-6" d="M0,456.83V494.7l720-4.14v-54S626,444,594,456.83s-122,16.56-144,14.1-118-22.08-169-23.3S111,467.25,90,464.8,0,456.83,0,456.83Z" transform="translate(0 0.25)"/><path class="cls-5" d="M0,458.81C.33,458.06.12,403,.12,403l6.33,18.31L12.33,403,17,423.43,22,403l6.29,57.69,7-46.83,8,48.78L53,410.79l7.88,50.67L70.33,433s.46,30.64,1.13,29.88,4.87-39,5.21-38.22,5.87,38.22,5.87,38.22,4.13-23.81,4.79-23.05S95.1,465,95.1,465Z" transform="translate(0 0.25)"/><path class="cls-5" d="M155.44,459.27c.26-.54.45-30.32.45-30.32l4.63-13,6.14,27.54,2.64-17.77,6.15,30.52,3.15-32.56,9.61,32.56Z" transform="translate(0 0.25)"/><path class="cls-5" d="M639.91,450.36c.27-.34.46-18.9.46-18.9l4.63-8.12,6.14,17.16,2.64-11.07,6.15,19,3.15-20.28,9.61,20.28Z" transform="translate(0 0.25)"/><rect class="cls-7" x="31.26" y="458.23" width="5.49" height="27.64"/><rect class="cls-8" x="31.26" y="462.49" width="2.74" height="23.37"/><polyline class="cls-9" points="33.39 288.55 26.89 317.74 33.39 308.89 33.39 314.38 33.39 321.7 43.16 340.21 42.43 336.06 34.41 290.18"/><path class="cls-10" d="M27.5,326.13" transform="translate(0 0.25)"/><path class="cls-11" d="M65.6,482.34a5.82,5.82,0,0,0-1.14-1.52L43.22,452.64,19.09,437.59,14.48,440l-8,40.64L30.14,461,35,469.89,37,462l8.25,15.19,3.1-8.07,8.55,12,.84-5.11Z" transform="translate(0 0.25)"/><polygon class="cls-11" points="27.5 315 26.32 320.01 33.39 308.89 27.5 315"/><path class="cls-9" d="M15.29,423.33,3.39,451l15.7-13.39-5.7,29.66,20-19.36s12.14,24.41,11.73,23.87-1.89-19.12-1.89-19.12l22.37,29.7L52.41,432.67,27,414.67Z" transform="translate(0 0.25)"/><path class="cls-11" d="M8.27,429l17.7-12,16.68,22.57-1.93-7.83s14.44,18.41,14.13,17.8-6.91-19.22-6.91-19.22S58.51,447.15,58.31,447s-7-28.72-7-28.72L32.38,399.55,25,393.17Z" transform="translate(0 0.25)"/><path class="cls-9" d="M11.83,413.08,25.46,378.6s6.51-2.33,7-2.33,10.17,2.3,10.17,2.3l5.47,9.25,6.22,22.31L43.16,389.18l10.2,23.29,3.52,18.61-9.76-14.89,2.75,10.52-17.7-22,.1,8.54-5.89-15.35Z" transform="translate(0 0.25)"/><polygon class="cls-11" points="23.81 369.57 15.09 394.52 25.46 378.86 21.09 395.74 31.56 377.23 32.58 382.65 34.82 379.67 36.24 387.19 38.88 378.86 49.05 389.23 46.61 384.14 51.09 387.6 44.98 368.86 39.49 358.72 27.29 357.3 23.81 369.57"/><path class="cls-9" d="M33.57,308.12l-7.09,15.57-2.2,17.08-.45,3.46,4.41-5.05L16.92,381.45,28.1,360.3,30.34,367s1-7.52,1.63-7.52,11.19,11.8,11.19,11.8v-5.54l7.52,13.33-7.52-21,8.13,8.3-7.43-22.19-4.54-12.68-.51-3.9Z" transform="translate(0 0.25)"/><polygon class="cls-11" points="33.29 322.31 23.83 344.48 23.53 347.43 30.95 334.82 29.53 340.21 30.14 345.9 36.14 337.46 42.65 345.7 33.29 322.31"/><polygon class="cls-11" points="33.09 319.12 33.09 319.12 43.16 340.21 38.12 323.39 33.09 319.12"/><polygon class="cls-12" points="34.41 290.18 33.39 288.55 27.49 315 26.32 320.01 33.18 309.22 26.48 323.94 24.28 341.02 23.83 344.48 23.53 347.43 28.23 339.44 28.24 339.44 16.92 381.7 24.36 367.63 23.81 369.57 15.09 394.52 25.46 378.86 11.83 413.33 19.31 405.54 8.27 429.26 14.72 424.9 3.39 451.23 14.12 442.07 6.44 480.92 30.14 461.23 31.26 463.27 31.26 485.87 34 485.87 34.92 485.87 34.92 469.96 34.92 458.23 34.92 451.22 34.92 447.71 34.92 429.41 34.92 420.56 34.92 408.4 34.92 402.31 34.92 380.22 34.92 377.02 34.92 362.56 34.92 358.19 34.92 339.18 34.92 326.38 34.92 324.6 34.92 322.96 34.92 320.68 34.92 313.39 34.92 293.1 34.41 290.18"/><rect class="cls-7" x="101.97" y="474.36" width="5.49" height="27.64"/><rect class="cls-8" x="101.97" y="478.62" width="2.74" height="23.37"/><polyline class="cls-9" points="104.1 304.68 97.59 333.87 104.1 325.02 104.1 330.51 104.1 337.83 113.87 356.34 113.14 352.19 105.12 306.31"/><path class="cls-10" d="M98.21,342.26" transform="translate(0 0.25)"/><path class="cls-11" d="M136.31,498.47a5.82,5.82,0,0,0-1.14-1.52l-21.24-28.18-24.13-15-4.61,2.44-8,40.64,23.69-19.69,4.88,8.91,2-7.93L116,493.28l3.1-8.07,8.55,12,.84-5.11Z" transform="translate(0 0.25)"/><polygon class="cls-11" points="98.2 331.13 97.03 336.14 104.1 325.02 98.2 331.13"/><path class="cls-9" d="M86,439.46,74.1,467.11l15.7-13.39-5.7,29.66,20-19.36s12.14,24.41,11.73,23.87-1.9-19.12-1.9-19.12l22.38,29.7L123.12,448.8l-25.46-18Z" transform="translate(0 0.25)"/><path class="cls-11" d="M79,445.14l17.7-12,16.68,22.57-1.93-7.83s14.44,18.41,14.13,17.8-6.91-19.22-6.91-19.22,10.57,16.78,10.37,16.58-7-28.72-7-28.72l-18.91-18.68-7.43-6.38Z" transform="translate(0 0.25)"/><path class="cls-9" d="M82.54,429.21l13.63-34.48s6.51-2.33,7-2.33,10.17,2.3,10.17,2.3l5.47,9.25,6.22,22.31-11.18-20.95,10.2,23.29,3.53,18.61-9.77-14.89,2.75,10.52-17.7-22,.11,8.54-5.9-15.35Z" transform="translate(0 0.25)"/><polygon class="cls-11" points="94.52 385.7 85.8 410.65 96.17 394.99 91.8 411.87 102.27 393.36 103.29 398.78 105.53 395.8 106.95 403.32 109.59 394.99 119.76 405.36 117.32 400.27 121.8 403.73 115.69 384.99 110.2 374.85 98 373.43 94.52 385.7"/><path class="cls-9" d="M104.28,324.25l-7.09,15.57L95,356.9l-.45,3.46L99,355.31,87.63,397.58l11.19-21.15,2.23,6.71s1-7.52,1.63-7.52,11.19,11.8,11.19,11.8v-5.54l7.52,13.33-7.52-21,8.13,8.3-7.43-22.19L110,347.62l-.51-3.9Z" transform="translate(0 0.25)"/><polygon class="cls-11" points="104 338.44 94.54 360.61 94.24 363.56 101.66 350.95 100.24 356.34 100.85 362.04 106.85 353.6 113.36 361.83 104 338.44"/><polygon class="cls-11" points="103.8 335.25 103.8 335.25 113.87 356.34 108.83 339.52 103.8 335.25"/><polygon class="cls-13" points="105.12 306.31 104.1 304.68 98.2 331.13 97.03 336.14 103.89 325.35 97.19 340.07 94.99 357.15 94.54 360.61 94.24 363.56 98.94 355.56 98.95 355.56 87.63 397.83 95.07 383.76 94.52 385.7 85.8 410.65 96.17 394.99 82.54 429.46 90.02 421.67 78.98 445.39 85.44 441.03 74.1 467.35 84.83 458.2 77.15 497.05 100.85 477.36 101.97 479.4 101.97 502 104.71 502 105.63 502 105.63 486.09 105.63 474.36 105.63 467.35 105.63 463.84 105.63 445.54 105.63 436.69 105.63 424.53 105.63 418.44 105.63 396.35 105.63 393.15 105.63 378.69 105.63 374.31 105.63 355.31 105.63 342.51 105.63 340.73 105.63 339.09 105.63 336.81 105.63 329.52 105.63 309.23 105.12 306.31"/><path class="cls-14" d="M111.12,478.23,54,481.71,0,489.44V504H112.75c6.56-8.7,8.22-17.71,14.36-26.55Z" transform="translate(0 0.25)"/><path class="cls-15" d="M51.09,480.16l4-5V462.56l-7.94,15.91.27,6.86c1,.61,1.92,1.36,2.89,2.09Z" transform="translate(0 0.25)"/><path class="cls-16" d="M47.39,485.33,48,504h1.36l.9-16.59C49.31,486.69,48.38,485.94,47.39,485.33Z" transform="translate(0 0.25)"/><path class="cls-17" d="M508.17,489.78S274.5,474,247,473.38c-20.93-.48-88.69,2.58-119.89,4.07-6.14,8.84-9.8,17.84-16.36,26.55h496c-5.25-7.57-10.5-15.16-15.49-22.95Z" transform="translate(0 0.25)"/><path class="cls-14" d="M720.12,465l-102,13.23-26.82,2.82c5,7.78,10.24,15.38,15.49,22.95H720.12V465Z" transform="translate(0 0.25)"/><path class="cls-3" d="M720,277.05s-37.25,35-42.7,40.88-6.63,16.45-6.63,16.45S616,365,586,362.38s-18.12,8.36-32.67,10.34c-39,5.28-41.91-4.3-43.33-1.63-6,11.29,39.33,14.62,96.67,11.29s106.66-11.33,113.33-18Z" transform="translate(0 0.25)"/><polygon class="cls-10" points="456.45 196.31 456.46 196.36 435.96 197.84 455.09 198.97 457.59 199.84 459.04 197.98 475.83 188.75 456.45 196.31"/><polygon class="cls-18" points="203.04 73.92 203.03 73.97 185.05 64 200.45 75.4 202.06 77.5 204.3 76.74 223.4 78.19 203.04 73.92"/><polygon class="cls-18" points="180.82 222.82 180.81 222.86 168.65 216.11 179.07 223.83 180.16 225.25 181.68 224.73 194.6 225.72 180.82 222.82"/><polygon class="cls-18" points="697.29 218.02 697.3 218.06 709.47 211.31 699.05 219.03 697.96 220.45 696.44 219.93 683.51 220.91 697.29 218.02"/><rect class="cls-7" x="200.9" y="459.04" width="6.75" height="34"/><rect class="cls-8" x="200.9" y="464.29" width="3.38" height="28.75"/><polyline class="cls-9" points="203.52 250.34 195.51 286.23 203.52 275.35 203.52 282.11 203.52 291.11 215.53 313.88 214.64 308.77 204.77 252.34"/><path class="cls-10" d="M196.26,296.62" transform="translate(0 0.25)"/><path class="cls-11" d="M243.13,488.75a7.13,7.13,0,0,0-1.4-1.86l-26.12-34.66-29.68-18.52-5.68,3-9.88,50,29.15-24.22,6,11,2.42-9.76,10.14,18.69,3.83-9.93,10.5,14.75,1.05-6.28Z" transform="translate(0 0.25)"/><polygon class="cls-11" points="196.26 282.87 194.83 289.03 203.52 275.35 196.26 282.87"/><path class="cls-9" d="M181.25,416.17l-14.63,34,19.3-16.47-7,36.48,24.6-23.8s14.93,30,14.43,29.35-2.34-23.51-2.34-23.51l27.52,36.52-16.22-61.09L195.6,405.52Z" transform="translate(0 0.25)"/><path class="cls-11" d="M172.62,423.16l21.77-14.72,20.51,27.77-2.37-9.63s17.76,22.64,17.38,21.89-8.5-23.64-8.5-23.64,13,20.64,12.76,20.39-8.63-35.32-8.63-35.32l-23.27-23-9.13-7.86Z" transform="translate(0 0.25)"/><path class="cls-9" d="M177,403.57l16.76-42.41s8-2.87,8.63-2.87,12.51,2.82,12.51,2.82l6.74,11.39,7.65,27.44-13.76-25.77,12.55,28.64,4.33,22.9-12-18.31,3.37,12.93-21.76-27,.12,10.51-7.25-18.89Z" transform="translate(0 0.25)"/><polygon class="cls-11" points="191.73 349.99 181 380.68 193.76 361.41 188.38 382.18 201.27 359.41 202.52 366.08 205.27 362.41 207.02 371.67 210.28 361.41 222.78 374.17 219.78 367.92 225.28 372.17 217.77 349.12 211.03 336.64 196.01 334.89 191.73 349.99"/><path class="cls-9" d="M203.74,274.46,195,293.61l-2.7,21-.55,4.26,5.42-6.21-13.93,52,13.76-26,2.76,8.25s1.25-9.25,2-9.25,13.76,14.51,13.76,14.51v-6.81l9.25,16.39-9.25-25.85,10,10.21-9.13-27.29-5.59-15.6-.63-4.8Z" transform="translate(0 0.25)"/><polygon class="cls-11" points="203.4 291.86 191.76 319.13 191.39 322.76 200.52 307.25 198.77 313.88 199.52 320.88 206.9 310.5 214.9 320.63 203.4 291.86"/><polygon class="cls-11" points="203.15 287.94 203.15 287.94 215.53 313.88 209.34 293.19 203.15 287.94"/><polygon class="cls-19" points="204.77 252.34 203.52 250.34 196.26 282.88 194.83 289.03 203.26 275.76 195.01 293.87 192.31 314.87 191.76 319.13 191.39 322.76 197.18 312.93 197.18 312.93 183.26 364.91 192.41 347.6 191.73 349.99 181 380.68 193.76 361.41 177 403.82 186.2 394.23 172.62 423.41 180.56 418.04 166.62 450.43 179.82 439.17 170.37 486.95 199.52 462.73 200.9 465.25 200.9 493.04 204.27 493.04 205.4 493.04 205.4 473.47 205.4 459.04 205.4 450.42 205.4 446.11 205.4 423.6 205.4 412.7 205.4 397.75 205.4 390.27 205.4 363.09 205.4 359.15 205.4 341.37 205.4 335.99 205.4 312.61 205.4 296.87 205.4 294.68 205.4 292.66 205.4 289.85 205.4 280.89 205.4 255.93 204.77 252.34"/><polyline class="cls-9" points="616.03 266.22 626.01 311 616.03 297.43 616.03 305.85 616.03 317.08 601.05 345.48 602.16 339.1 614.47 268.72"/><path class="cls-10" d="M625.08,324" transform="translate(0 0.25)"/><polygon class="cls-11" points="637.97 495.25 645.05 498.99 646.09 504.25 623.54 504.25 637.97 495.25"/><polygon class="cls-11" points="625.08 306.8 626.87 314.49 616.03 297.43 625.08 306.8"/><polygon class="cls-9" points="586.85 487.7 625.91 460.09 643.8 473.37 657.09 504.25 648.53 504.25 637.97 495.25 639.7 504.25 582.46 504.25 586.85 487.7"/><path class="cls-11" d="M581.1,504h-1.89c2.92-11.74,9.36-38.71,9.36-38.71l29-28.64,11.39-9.8,25.58,55-27.14-18.35-25.59,34.63,3-12S597,496.1,590.7,504h-4.15c3.1-8.64,7.17-20.08,7.17-20.08S585.76,496.54,581.1,504Z" transform="translate(0 0.25)"/><path class="cls-9" d="M649.1,457.4l-20.9-52.89s-10-3.59-10.77-3.59-15.6,3.53-15.6,3.53l-8.4,14.2-9.54,34.22,17.16-32.14L585.4,456.45,580,485l15-22.84-4.22,16.13,27.15-33.7-.16,13.11,9-23.56Z" transform="translate(0 0.25)"/><polygon class="cls-11" points="630.73 390.52 644.11 428.79 628.2 404.76 634.9 430.66 618.84 402.26 617.28 410.59 613.84 406.01 611.66 417.55 607.6 404.76 592 420.67 595.75 412.87 588.88 418.18 598.26 389.43 606.67 373.87 625.39 371.69 630.73 390.52"/><path class="cls-9" d="M615.76,296.37l10.88,23.89,3.37,26.2.68,5.32L623.94,344l17.36,64.84-17.16-32.45-3.43,10.29s-1.56-11.54-2.5-11.54-17.16,18.1-17.16,18.1v-8.49l-11.54,20.44L601.05,373l-12.48,12.73L600,351.68l7-19.45.78-6Z" transform="translate(0 0.25)"/><polygon class="cls-11" points="616.18 318.02 630.69 352.03 631.16 356.55 619.77 337.21 621.96 345.48 621.02 354.21 611.81 341.26 601.83 353.9 616.18 318.02"/><polygon class="cls-11" points="616.5 313.12 616.5 313.12 601.05 345.48 608.77 319.67 616.5 313.12"/><polygon class="cls-19" points="613.68 482.32 613.68 468.73 613.68 450.09 613.68 440.75 613.68 406.85 613.68 401.94 613.68 379.77 613.68 373.05 613.68 343.89 613.68 324.27 613.68 321.52 613.68 319.01 613.68 315.51 613.68 304.33 613.68 273.2 614.47 268.72 616.03 266.22 625.08 306.81 626.87 314.49 616.35 297.94 626.64 320.51 630.01 346.71 630.69 352.03 631.16 356.55 623.94 344.29 623.94 344.29 641.3 409.13 629.88 387.54 630.73 390.52 644.11 428.79 628.2 404.76 649.1 457.65 637.63 445.69 654.56 482.08 644.67 475.39 657.09 504.25 648.53 504.25 645.59 501.74 646.09 504.25 613.68 504.25 613.68 482.32"/><path class="cls-20" d="M77.86,480.42l-7.52-14.69v11.76l4.21,5.27.85,15.78a9.19,9.19,0,0,1,1.73.18Z" transform="translate(0 0.25)"/><path class="cls-21" d="M75.36,498l.27,6h1.52v-5.72A8.8,8.8,0,0,0,75.36,498Z" transform="translate(0 0.25)"/><polygon class="cls-22" points="394.03 462.2 403.58 463.62 423.13 472.2 373 481.19 351.58 479.72 410.85 471.2 394.03 462.2"/><polygon class="cls-23" points="295.93 476.25 239.05 504.25 471.96 504.25 432.87 485.01 336.58 478.76 295.93 476.25"/><rect class="cls-7" x="700.89" y="490.61" width="8.42" height="13.6"/><rect class="cls-8" x="700.89" y="497.16" width="4.21" height="7.05"/><polygon class="cls-9" points="705.72 232.81 704.16 230.32 694.17 275.09 704.16 261.52 704.16 269.94 704.16 281.18 719.14 309.57 718.02 303.2 705.72 232.81"/><path class="cls-10" d="M695.11,288.1" transform="translate(0 0.25)"/><polygon class="cls-11" points="719.24 482.43 682.21 459.34 675.14 463.08 667.01 504.21 688.34 504.21 699.17 495.22 704.09 504.21 707.81 504.21 709.67 496.72 713.74 504.21 720 504.21 720 483.44 719.24 482.43"/><polygon class="cls-11" points="695.11 270.89 693.32 278.58 704.16 261.52 695.11 270.89"/><path class="cls-9" d="M720,483.19V442.12l-25.72-18.19-17.89,13.28-18.26,42.41,24.08-20.53L673.59,504h.52l30-29.06s9.12,18.35,14.38,29.06H720V491.29c-.44-5.07-.76-9.11-.76-9.11Z" transform="translate(0 0.25)"/><path class="cls-11" d="M702.6,400.74l-11.39-9.8-25.59,55,27.15-18.35,25.59,34.64-3-12,4.61,5.86V417.92Z" transform="translate(0 0.25)"/><path class="cls-9" d="M719.14,384.83l.86,1.62V371.33l-1.65-2.79S703.53,365,702.75,365,692,368.6,692,368.6l-20.91,52.89,22.31-23.24,9.05,23.55-.15-13.1,17.71,22V386.8Z" transform="translate(0 0.25)"/><polygon class="cls-11" points="713.52 337.96 694.8 335.78 689.46 354.61 676.08 392.88 691.99 368.85 685.28 394.75 701.35 366.36 702.91 374.68 706.34 370.1 708.53 381.65 712.58 368.85 720 376.42 720 349.96 713.52 337.96"/><path class="cls-9" d="M719.14,337.09l.86.88v-22.8l-6.75-18.84-.79-6-8-29.88-10.88,23.89-3.37,26.2-.69,5.31,6.76-7.74L678.88,373,696,340.52l3.44,10.3S701,339.27,702,339.27s17.17,18.1,17.17,18.1v-8.48l.86,1.53V339.51Z" transform="translate(0 0.25)"/><polygon class="cls-11" points="704 282.11 689.49 316.12 689.02 320.65 700.41 301.3 698.23 309.57 699.17 318.31 708.37 305.36 718.35 317.99 704 282.11"/><polygon class="cls-11" points="703.69 277.22 719.14 309.57 711.41 283.77 703.69 277.22"/><polygon class="cls-24" points="258.18 459.22 275.19 462.29 275.19 475.76 258.18 474.29 258.18 459.22"/><polygon class="cls-25" points="16.13 456.52 26.75 462.43 26.79 485.83 16.17 487.34 16.13 456.52"/><polygon class="cls-26" points="53.84 474.27 74.16 482.59 74.16 504.25 53.93 504.32 53.84 474.27"/><polygon class="cls-26" points="672.73 466.64 657.64 473.85 657.56 504.2 672.67 504.29 672.73 466.64"/><polygon class="cls-26" points="110.91 484.73 156 493.04 156 504.31 111.09 504.36 110.91 484.73"/><polygon class="cls-27" points="720 315.5 715.29 302.36 719.14 309.65 718.02 303.28 705.72 232.89 704.16 230.4 695.11 270.97 695.11 270.97 693.32 278.66 703.83 262.11 693.55 284.69 690.18 310.89 689.49 316.2 689.02 320.73 696.24 308.46 696.25 308.46 678.88 373.3 690.3 351.7 689.46 354.69 676.08 392.96 691.99 368.93 671.08 421.82 682.56 409.87 665.62 446.25 675.52 439.57 658.14 479.95 674.6 465.92 667.01 504.29 673.59 504.29 674.11 504.29 688.34 504.29 699.17 495.3 700.89 498.44 700.89 504.29 704.09 504.29 705.1 504.29 707.81 504.29 709.3 504.29 709.3 498.28 709.67 496.8 713.74 504.29 718.54 504.29 720 504.29 720 491.62 720 483.52 720 456.39 720 442.45 720 431.02 720 418.25 720 387.13 719.14 385.16 720 386.78 720 376.5 720 371.66 720 350.75 720 350.04 720 339.84 719.14 337.42 720 338.3 720 315.5"/><polygon class="cls-15" points="133.5 58.87 138.5 83.27 133.5 78.19 133.5 58.87"/><polygon class="cls-10" points="264.19 51.8 269.19 76.2 264.19 71.13 264.19 51.8"/><polygon class="cls-10" points="64 64 69 88.4 64 83.33 64 64"/><polygon class="cls-10" points="64 208.72 69 233.12 64 228.04 64 208.72"/><polygon class="cls-10" points="265.55 220.91 270.55 245.31 265.55 240.24 265.55 220.91"/><polygon class="cls-10" points="265.55 369.5 270.55 393.9 265.55 388.83 265.55 369.5"/><polygon class="cls-15" points="136 387.21 145.5 416.16 136.31 405.78 136 387.21"/><path class="cls-28" d="M166.36,458.57,155.44,430v22.86l6.11,10.25,1.23,30.69a9.78,9.78,0,0,1,2.52.34Z" transform="translate(0 0.25)"/><path class="cls-29" d="M162.72,492.72l.39,11.28,2.21.11v-10.8A9.16,9.16,0,0,0,162.72,492.72Z" transform="translate(0 0.25)"/><path class="cls-15" d="M106.73,472.2l5.33-6.64v-17L101.4,469.93l.36,9.21c1.33.82,2.58,1.83,3.88,2.8Z" transform="translate(0 0.25)"/><path class="cls-16" d="M101.76,479.14l.95,24.48h1.8l1.14-21.68C104.34,481,103.09,480,101.76,479.14Z" transform="translate(0 0.25)"/><polygon class="cls-10" points="665.17 74.83 664.72 76.03 661.37 84.85 665.17 82.58 665.17 74.83"/><polygon class="cls-10" points="665.17 209.19 664.72 210.4 661.37 219.22 665.17 216.95 665.17 209.19"/><polygon class="cls-10" points="666.05 332.27 665.59 333.48 662.24 342.3 666.05 340.03 666.05 332.27"/></svg>