<svg xmlns="http://www.w3.org/2000/svg" viewBox="0 0 574.07 208.56"><defs><style>.cls-1{isolation:isolate;}.cls-2{fill:#231f20;}.cls-20,.cls-3{fill:#fff;}.cls-4{fill:#d96283;}.cls-11,.cls-12,.cls-13,.cls-21,.cls-5,.cls-6,.cls-7,.cls-8,.cls-9{fill:none;stroke-linecap:round;stroke-linejoin:round;}.cls-11,.cls-12,.cls-13,.cls-14,.cls-21,.cls-5,.cls-6,.cls-7,.cls-8,.cls-9{stroke:#231f20;}.cls-5{stroke-width:1.72px;}.cls-6{stroke-width:1.53px;}.cls-7{stroke-width:2.48px;}.cls-8{stroke-width:1.97px;}.cls-9{stroke-width:2.2px;}.cls-10{fill:#27aae1;}.cls-11{stroke-width:1.35px;}.cls-12{stroke-width:2.21px;}.cls-13{stroke-width:1.48px;}.cls-14{fill:#333132;stroke-miterlimit:10;stroke-width:1.63px;}.cls-15{fill:#414042;}.cls-16{fill:#a7a9ac;}.cls-17{fill:#d1d3d4;}.cls-18{fill:#59caf0;}.cls-19{mix-blend-mode:multiply;}.cls-20{opacity:0.5;}.cls-21{stroke-width:2.7px;}</style></defs><title>58620 [Converted]</title><g class="cls-1"><g id="Capa_1" data-name="Capa 1"><path class="cls-2" d="M552.24,136.46c0,8-3.41,14.51-7.62,14.51s-7.62-6.5-7.62-14.51S540.41,122,544.62,122,552.24,128.45,552.24,136.46Z" transform="translate(-31.35 -32.69)"/><path class="cls-3" d="M550.52,130.9c0,3.45-1.43,6.25-3.19,6.25s-3.2-2.8-3.2-6.25,1.43-6.24,3.2-6.24S550.52,127.45,550.52,130.9Z" transform="translate(-31.35 -32.69)"/><path class="cls-3" d="M542.93,134.89c0,1.25-.52,2.26-1.16,2.26s-1.16-1-1.16-2.26.52-2.26,1.16-2.26S542.93,133.64,542.93,134.89Z" transform="translate(-31.35 -32.69)"/><path class="cls-3" d="M546.44,140.39c0,1.25-.51,2.26-1.15,2.26s-1.16-1-1.16-2.26.52-2.26,1.16-2.26S546.44,139.14,546.44,140.39Z" transform="translate(-31.35 -32.69)"/><path class="cls-2" d="M603,136.46c0,8-3.41,14.51-7.62,14.51s-7.63-6.5-7.63-14.51S591.14,122,595.35,122,603,128.45,603,136.46Z" transform="translate(-31.35 -32.69)"/><path class="cls-3" d="M601.25,130.9c0,3.45-1.43,6.25-3.2,6.25s-3.19-2.8-3.19-6.25,1.43-6.24,3.19-6.24S601.25,127.45,601.25,130.9Z" transform="translate(-31.35 -32.69)"/><path class="cls-3" d="M593.65,134.89c0,1.25-.51,2.26-1.15,2.26s-1.16-1-1.16-2.26.52-2.26,1.16-2.26S593.65,133.64,593.65,134.89Z" transform="translate(-31.35 -32.69)"/><path class="cls-3" d="M597.17,140.39c0,1.25-.52,2.26-1.16,2.26s-1.15-1-1.15-2.26.51-2.26,1.15-2.26S597.17,139.14,597.17,140.39Z" transform="translate(-31.35 -32.69)"/><path class="cls-4" d="M547.33,151.68c0,1.55-2.86,2.8-6.39,2.8s-6.39-1.25-6.39-2.8,2.86-2.81,6.39-2.81S547.33,150.13,547.33,151.68Z" transform="translate(-31.35 -32.69)"/><path class="cls-4" d="M605.42,151.68c0,1.55-2.86,2.8-6.39,2.8s-6.39-1.25-6.39-2.8,2.86-2.81,6.39-2.81S605.42,150.13,605.42,151.68Z" transform="translate(-31.35 -32.69)"/><path class="cls-5" d="M565,151.71c-2-.36-3.39,2.36-3.56,3.93-.26,2.34.72,3.43,2.85,4.19,3.86,1.36,6.55-1.26,6.34-5-.68.78-.21,3.06.42,3.93,1,1.4,3.1,1.72,4.75,1.48a4.44,4.44,0,0,0,3.74-5.15c-.16-.68-2.33-4.16-3-3" transform="translate(-31.35 -32.69)"/><path class="cls-6" d="M542.93,116s-6.32-1.29-7.92,5.07" transform="translate(-31.35 -32.69)"/><path class="cls-6" d="M596,116s6.32-1.29,7.92,5.07" transform="translate(-31.35 -32.69)"/><path class="cls-2" d="M449.63,57.74c0,8-3.42,14.5-7.63,14.5s-7.62-6.49-7.62-14.5,3.41-14.51,7.62-14.51S449.63,49.72,449.63,57.74Z" transform="translate(-31.35 -32.69)"/><path class="cls-7" d="M485.77,63.42c0-8,3.42-14.5,7.62-14.5S501,55.41,501,63.42" transform="translate(-31.35 -32.69)"/><path class="cls-3" d="M447.91,52.18c0,3.45-1.44,6.25-3.2,6.25s-3.2-2.8-3.2-6.25,1.43-6.25,3.2-6.25S447.91,48.73,447.91,52.18Z" transform="translate(-31.35 -32.69)"/><path class="cls-3" d="M440.31,56.17c0,1.25-.52,2.26-1.16,2.26s-1.15-1-1.15-2.26.51-2.26,1.15-2.26S440.31,54.92,440.31,56.17Z" transform="translate(-31.35 -32.69)"/><path class="cls-3" d="M443.83,61.67c0,1.25-.52,2.26-1.16,2.26s-1.16-1-1.16-2.26.52-2.26,1.16-2.26S443.83,60.42,443.83,61.67Z" transform="translate(-31.35 -32.69)"/><path class="cls-4" d="M444.71,75c0,1.55-2.86,2.8-6.39,2.8s-6.39-1.25-6.39-2.8,2.86-2.81,6.39-2.81S444.71,73.39,444.71,75Z" transform="translate(-31.35 -32.69)"/><path class="cls-4" d="M502.81,75c0,1.55-2.87,2.8-6.4,2.8S490,76.5,490,75s2.86-2.81,6.39-2.81S502.81,73.39,502.81,75Z" transform="translate(-31.35 -32.69)"/><path class="cls-6" d="M440.82,35.56s-6.32-1.28-7.91,5.08" transform="translate(-31.35 -32.69)"/><path class="cls-6" d="M493.91,35.56s6.32-1.28,7.91,5.08" transform="translate(-31.35 -32.69)"/><path class="cls-8" d="M474.42,77.41c0,5-3.16,9-7.05,9s-7.05-4-7.05-9" transform="translate(-31.35 -32.69)"/><path class="cls-9" d="M484.45,57.74" transform="translate(-31.35 -32.69)"/><ellipse class="cls-2" cx="410.65" cy="102.38" rx="7.62" ry="14.51"/><path class="cls-3" d="M447.91,129.52c0,3.45-1.44,6.24-3.2,6.24s-3.2-2.79-3.2-6.24,1.43-6.25,3.2-6.25S447.91,126.07,447.91,129.52Z" transform="translate(-31.35 -32.69)"/><path class="cls-3" d="M440.31,133.5c0,1.25-.52,2.26-1.16,2.26s-1.15-1-1.15-2.26.51-2.26,1.15-2.26S440.31,132.26,440.31,133.5Z" transform="translate(-31.35 -32.69)"/><path class="cls-3" d="M443.83,139c0,1.24-.52,2.26-1.16,2.26s-1.16-1-1.16-2.26.52-2.27,1.16-2.27S443.83,137.76,443.83,139Z" transform="translate(-31.35 -32.69)"/><ellipse class="cls-2" cx="461.38" cy="102.38" rx="7.62" ry="14.51"/><path class="cls-3" d="M498.63,129.52c0,3.45-1.43,6.24-3.2,6.24s-3.19-2.79-3.19-6.24,1.43-6.25,3.19-6.25S498.63,126.07,498.63,129.52Z" transform="translate(-31.35 -32.69)"/><path class="cls-3" d="M491,133.5c0,1.25-.52,2.26-1.16,2.26s-1.16-1-1.16-2.26.52-2.26,1.16-2.26S491,132.26,491,133.5Z" transform="translate(-31.35 -32.69)"/><path class="cls-3" d="M494.55,139c0,1.24-.52,2.26-1.16,2.26s-1.15-1-1.15-2.26.52-2.27,1.15-2.27S494.55,137.76,494.55,139Z" transform="translate(-31.35 -32.69)"/><path class="cls-4" d="M444.71,150.29c0,1.55-2.86,2.81-6.39,2.81s-6.39-1.26-6.39-2.81,2.86-2.81,6.39-2.81S444.71,148.74,444.71,150.29Z" transform="translate(-31.35 -32.69)"/><path class="cls-4" d="M502.81,150.29c0,1.55-2.87,2.81-6.4,2.81s-6.39-1.26-6.39-2.81,2.86-2.81,6.39-2.81S502.81,148.74,502.81,150.29Z" transform="translate(-31.35 -32.69)"/><path class="cls-6" d="M440.31,114.62s-6.32-1.28-7.91,5.08" transform="translate(-31.35 -32.69)"/><path class="cls-6" d="M493.39,114.62s6.33-1.28,7.92,5.08" transform="translate(-31.35 -32.69)"/><path class="cls-3" d="M467.69,163.08c-7.66,0-13.9-5.43-13.9-12.11,0-2.78,1.13-4.13,3.44-4.13a19,19,0,0,1,3.95.65,22.55,22.55,0,0,0,13,0,18.78,18.78,0,0,1,3.94-.65c2.31,0,3.44,1.35,3.44,4.13C481.58,157.65,475.35,163.08,467.69,163.08Z" transform="translate(-31.35 -32.69)"/><path class="cls-2" d="M478.14,147.7c1.62,0,2.58.75,2.58,3.27,0,6.21-5.84,11.25-13,11.25s-13-5-13-11.25c0-2.52,1-3.27,2.58-3.27,2.38,0,6.18,1.61,10.46,1.61s8.07-1.61,10.45-1.61m0-1.72h0a19.63,19.63,0,0,0-4.14.67,21.68,21.68,0,0,1-12.63,0,19.63,19.63,0,0,0-4.14-.67c-1.6,0-4.3.65-4.3,5,0,7.15,6.62,13,14.76,13s14.75-5.82,14.75-13c0-4.34-2.7-5-4.3-5Z" transform="translate(-31.35 -32.69)"/><path class="cls-2" d="M454.38,149.92c-.05.22,1.11,1.25,1.27,1.41a9.46,9.46,0,0,0,1.92,1.48,12.56,12.56,0,0,0,1.61.78,10.43,10.43,0,0,1,1.07.46,11.3,11.3,0,0,1-6.12-1.23C453.79,152.64,454.38,149.92,454.38,149.92Z" transform="translate(-31.35 -32.69)"/><path class="cls-2" d="M480.88,149.92c.05.22-1.11,1.25-1.27,1.41a9.46,9.46,0,0,1-1.92,1.48,12.56,12.56,0,0,1-1.61.78,10.43,10.43,0,0,0-1.07.46,11.24,11.24,0,0,0,6.11-1.23C481.47,152.64,480.88,149.92,480.88,149.92Z" transform="translate(-31.35 -32.69)"/><path class="cls-2" d="M462.77,154.8l.23-.05.58-.09c.25,0,.53,0,.82-.06s.62,0,.94,0h.47l.46,0a6.44,6.44,0,0,1,.81.07l.32,0,.26,0,.23,0-.21.1-.24.11c-.1,0-.21.08-.33.11a6.82,6.82,0,0,1-.83.16c-.3,0-.63.05-1,.05a7.3,7.3,0,0,1-.95-.08,5.62,5.62,0,0,1-.82-.17,5.7,5.7,0,0,1-.57-.18Z" transform="translate(-31.35 -32.69)"/><path class="cls-2" d="M256.88,135.7c0,8-3.41,14.5-7.62,14.5s-7.62-6.49-7.62-14.5,3.41-14.51,7.62-14.51S256.88,127.68,256.88,135.7Z" transform="translate(-31.35 -32.69)"/><path class="cls-3" d="M255.16,130.14c0,3.45-1.43,6.25-3.2,6.25s-3.19-2.8-3.19-6.25,1.43-6.25,3.19-6.25S255.16,126.69,255.16,130.14Z" transform="translate(-31.35 -32.69)"/><path class="cls-3" d="M247.56,134.13c0,1.25-.51,2.26-1.15,2.26s-1.16-1-1.16-2.26.52-2.26,1.16-2.26S247.56,132.88,247.56,134.13Z" transform="translate(-31.35 -32.69)"/><path class="cls-3" d="M251.08,139.63c0,1.25-.52,2.26-1.16,2.26s-1.15-1-1.15-2.26.52-2.26,1.15-2.26S251.08,138.38,251.08,139.63Z" transform="translate(-31.35 -32.69)"/><path class="cls-2" d="M307.61,135.7c0,8-3.42,14.5-7.63,14.5s-7.62-6.49-7.62-14.5,3.41-14.51,7.62-14.51S307.61,127.68,307.61,135.7Z" transform="translate(-31.35 -32.69)"/><path class="cls-3" d="M305.89,130.14c0,3.45-1.43,6.25-3.2,6.25s-3.2-2.8-3.2-6.25,1.43-6.25,3.2-6.25S305.89,126.69,305.89,130.14Z" transform="translate(-31.35 -32.69)"/><path class="cls-3" d="M298.29,134.13c0,1.25-.52,2.26-1.15,2.26s-1.16-1-1.16-2.26.52-2.26,1.16-2.26S298.29,132.88,298.29,134.13Z" transform="translate(-31.35 -32.69)"/><path class="cls-3" d="M301.81,139.63c0,1.25-.52,2.26-1.16,2.26s-1.16-1-1.16-2.26.52-2.26,1.16-2.26S301.81,138.38,301.81,139.63Z" transform="translate(-31.35 -32.69)"/><path class="cls-4" d="M252,150.91c0,1.55-2.86,2.81-6.39,2.81s-6.4-1.26-6.4-2.81,2.87-2.8,6.4-2.8S252,149.36,252,150.91Z" transform="translate(-31.35 -32.69)"/><path class="cls-4" d="M310.06,150.91c0,1.55-2.86,2.81-6.39,2.81s-6.4-1.26-6.4-2.81,2.87-2.8,6.4-2.8S310.06,149.36,310.06,150.91Z" transform="translate(-31.35 -32.69)"/><path class="cls-6" d="M246.35,117.73s2.3,6,8.53,4" transform="translate(-31.35 -32.69)"/><path class="cls-6" d="M302.36,117.73s-2.3,6-8.52,4" transform="translate(-31.35 -32.69)"/><path class="cls-3" d="M285.28,161.84a19,19,0,0,1-3.94-.65,22.55,22.55,0,0,0-13,0,19,19,0,0,1-3.94.65c-2.32,0-3.45-1.35-3.45-4.13,0-6.68,6.24-12.11,13.9-12.11s13.89,5.43,13.89,12.11C288.72,160.49,287.59,161.84,285.28,161.84Z" transform="translate(-31.35 -32.69)"/><path class="cls-2" d="M274.83,146.46c7.19,0,13,5,13,11.25,0,2.52-1,3.27-2.58,3.27-2.38,0-6.17-1.61-10.45-1.61S266.75,161,264.38,161c-1.63,0-2.58-.75-2.58-3.27,0-6.21,5.83-11.25,13-11.25m0-1.72c-8.14,0-14.76,5.82-14.76,13,0,4.34,2.7,5,4.31,5a19.55,19.55,0,0,0,4.13-.67,21.68,21.68,0,0,1,12.63,0,19.63,19.63,0,0,0,4.14.67c1.61,0,4.3-.65,4.3-5,0-7.15-6.62-13-14.75-13Z" transform="translate(-31.35 -32.69)"/><path class="cls-2" d="M288.14,158.76c0-.22-1.11-1.25-1.28-1.41a9.59,9.59,0,0,0-1.92-1.49,11.34,11.34,0,0,0-1.61-.77,11.48,11.48,0,0,1-1.07-.46,11.3,11.3,0,0,1,6.12,1.23C288.72,156,288.14,158.75,288.14,158.76Z" transform="translate(-31.35 -32.69)"/><path class="cls-2" d="M261.63,158.76c0-.22,1.11-1.25,1.28-1.41a9.32,9.32,0,0,1,1.92-1.49,11.77,11.77,0,0,1,1.6-.77,10.62,10.62,0,0,0,1.08-.46,11.28,11.28,0,0,0-6.12,1.23C261.05,156,261.63,158.75,261.63,158.76Z" transform="translate(-31.35 -32.69)"/><path class="cls-2" d="M279.75,153.88l-.23.05-.59.09c-.24,0-.52,0-.82.06s-.62,0-.93,0h-.48l-.45,0c-.3,0-.57,0-.81-.07l-.33,0-.26,0-.23,0,.21-.11.24-.1.33-.11c.24-.06.52-.12.83-.17s.63,0,1,0a7.3,7.3,0,0,1,.95.08,7.46,7.46,0,0,1,.82.16c.24.07.44.14.57.19Z" transform="translate(-31.35 -32.69)"/><path class="cls-7" d="M384.71,62.13c0-8,3.42-14.51,7.63-14.51S400,54.11,400,62.13" transform="translate(-31.35 -32.69)"/><path class="cls-7" d="M333.32,62.13c0-8,3.42-14.51,7.63-14.51s7.62,6.49,7.62,14.51" transform="translate(-31.35 -32.69)"/><path class="cls-4" d="M343.66,69.86c0,1.55-2.87,2.81-6.4,2.81s-6.39-1.26-6.39-2.81,2.86-2.81,6.39-2.81S343.66,68.31,343.66,69.86Z" transform="translate(-31.35 -32.69)"/><path class="cls-4" d="M401.75,69.86c0,1.55-2.87,2.81-6.4,2.81S389,71.41,389,69.86s2.86-2.81,6.39-2.81S401.75,68.31,401.75,69.86Z" transform="translate(-31.35 -32.69)"/><path class="cls-8" d="M373.36,76.11c0,5-3.16,9-7.05,9s-7.05-4-7.05-9" transform="translate(-31.35 -32.69)"/><path class="cls-9" d="M383.39,56.44" transform="translate(-31.35 -32.69)"/><path class="cls-6" d="M339.77,36.86s-6.33-1.29-7.92,5.07" transform="translate(-31.35 -32.69)"/><path class="cls-6" d="M392.85,36.86s6.32-1.29,7.91,5.07" transform="translate(-31.35 -32.69)"/><path class="cls-7" d="M385.38,142.58c0-8,3.41-14.5,7.62-14.5s7.62,6.49,7.62,14.5" transform="translate(-31.35 -32.69)"/><path class="cls-7" d="M334,142.58c0-8,3.41-14.5,7.62-14.5s7.62,6.49,7.62,14.5" transform="translate(-31.35 -32.69)"/><path class="cls-4" d="M344.32,150.32c0,1.55-2.86,2.81-6.39,2.81s-6.39-1.26-6.39-2.81,2.86-2.81,6.39-2.81S344.32,148.77,344.32,150.32Z" transform="translate(-31.35 -32.69)"/><path class="cls-4" d="M402.41,150.32c0,1.55-2.86,2.81-6.39,2.81s-6.39-1.26-6.39-2.81,2.86-2.81,6.39-2.81S402.41,148.77,402.41,150.32Z" transform="translate(-31.35 -32.69)"/><path class="cls-9" d="M384.06,136.9" transform="translate(-31.35 -32.69)"/><path class="cls-6" d="M340.43,117.31s-6.32-1.28-7.91,5.08" transform="translate(-31.35 -32.69)"/><path class="cls-6" d="M393.52,117.31s6.32-1.28,7.91,5.08" transform="translate(-31.35 -32.69)"/><path class="cls-7" d="M363.84,145.2l2.75-2.7a4.31,4.31,0,0,1,6.09.06c1.67,1.7,1.92,4.77-.05,6.1a30.89,30.89,0,0,1-4,1.71,28,28,0,0,1,3.86,1.64c2,1.33,1.68,4.41,0,6.1a4.32,4.32,0,0,1-6.1,0l-2.78-2.79" transform="translate(-31.35 -32.69)"/><path class="cls-2" d="M552.24,56.59c0,8-3.41,14.51-7.62,14.51S537,64.6,537,56.59s3.41-14.51,7.62-14.51S552.24,48.58,552.24,56.59Z" transform="translate(-31.35 -32.69)"/><path class="cls-3" d="M550.52,51c0,3.45-1.43,6.25-3.19,6.25s-3.2-2.8-3.2-6.25,1.43-6.24,3.2-6.24S550.52,47.58,550.52,51Z" transform="translate(-31.35 -32.69)"/><path class="cls-3" d="M542.93,55c0,1.25-.52,2.26-1.16,2.26s-1.16-1-1.16-2.26.52-2.26,1.16-2.26S542.93,53.77,542.93,55Z" transform="translate(-31.35 -32.69)"/><path class="cls-3" d="M546.44,60.52c0,1.25-.51,2.26-1.15,2.26s-1.16-1-1.16-2.26.52-2.26,1.16-2.26S546.44,59.27,546.44,60.52Z" transform="translate(-31.35 -32.69)"/><path class="cls-2" d="M603,56.59c0,8-3.41,14.51-7.62,14.51s-7.63-6.5-7.63-14.51,3.42-14.51,7.63-14.51S603,48.58,603,56.59Z" transform="translate(-31.35 -32.69)"/><path class="cls-3" d="M601.25,51c0,3.45-1.43,6.25-3.2,6.25s-3.19-2.8-3.19-6.25,1.43-6.24,3.19-6.24S601.25,47.58,601.25,51Z" transform="translate(-31.35 -32.69)"/><path class="cls-3" d="M593.65,55c0,1.25-.51,2.26-1.15,2.26s-1.16-1-1.16-2.26.52-2.26,1.16-2.26S593.65,53.77,593.65,55Z" transform="translate(-31.35 -32.69)"/><path class="cls-3" d="M597.17,60.52c0,1.25-.52,2.26-1.16,2.26s-1.15-1-1.15-2.26.51-2.26,1.15-2.26S597.17,59.27,597.17,60.52Z" transform="translate(-31.35 -32.69)"/><path class="cls-4" d="M547.33,72.82c0,1.55-2.86,2.8-6.39,2.8s-6.39-1.25-6.39-2.8S537.41,70,540.94,70,547.33,71.27,547.33,72.82Z" transform="translate(-31.35 -32.69)"/><path class="cls-4" d="M605.42,72.82c0,1.55-2.86,2.8-6.39,2.8s-6.39-1.25-6.39-2.8S595.5,70,599,70,605.42,71.27,605.42,72.82Z" transform="translate(-31.35 -32.69)"/><path class="cls-6" d="M542.93,34.41s-6.32-1.28-7.92,5.08" transform="translate(-31.35 -32.69)"/><path class="cls-6" d="M596,34.41s6.32-1.28,7.92,5.08" transform="translate(-31.35 -32.69)"/><path class="cls-3" d="M570.55,88.39c-7.27,0-13.18-5.16-13.18-11.49,0-2.64,1.07-3.92,3.26-3.92a18.11,18.11,0,0,1,3.74.62,21.44,21.44,0,0,0,12.36,0,18,18,0,0,1,3.73-.62c2.2,0,3.27,1.28,3.27,3.92C583.73,83.23,577.82,88.39,570.55,88.39Z" transform="translate(-31.35 -32.69)"/><path class="cls-2" d="M580.46,73.8c1.54,0,2.45.71,2.45,3.1,0,5.89-5.53,10.67-12.36,10.67s-12.36-4.78-12.36-10.67c0-2.39.91-3.1,2.44-3.1,2.26,0,5.86,1.52,9.92,1.52s7.66-1.52,9.91-1.52m0-1.63h0a18.7,18.7,0,0,0-3.92.63,20.64,20.64,0,0,1-12,0,18.5,18.5,0,0,0-3.92-.63c-1.52,0-4.08.61-4.08,4.73,0,6.78,6.28,12.3,14,12.3s14-5.52,14-12.3c0-4.12-2.55-4.73-4.08-4.73Z" transform="translate(-31.35 -32.69)"/><path class="cls-4" d="M570.59,88.39c-6.68,0-12.31-4.36-13.09-10.13a.82.82,0,0,1,.35-.79.86.86,0,0,1,.46-.14.87.87,0,0,1,.39.1c2.81,1.55,7,2.44,11.54,2.44,4.92,0,9.49-1.07,12.23-2.85a.83.83,0,0,1,.86,0,.83.83,0,0,1,.4.77C583.21,83.72,577.44,88.39,570.59,88.39Z" transform="translate(-31.35 -32.69)"/><path class="cls-2" d="M582.91,77.7c-.47,5.52-5.81,9.87-12.32,9.87-6.34,0-11.56-4.12-12.28-9.42a25.88,25.88,0,0,0,11.93,2.53c5.27,0,9.91-1.18,12.67-3m0-1.63a1.68,1.68,0,0,0-.89.26c-2.61,1.71-7,2.72-11.78,2.72-4.39,0-8.45-.85-11.14-2.33a1.66,1.66,0,0,0-1.71.08,1.65,1.65,0,0,0-.7,1.57c.84,6.17,6.81,10.83,13.9,10.83,7.27,0,13.4-5,13.95-11.36a1.63,1.63,0,0,0-.79-1.54,1.69,1.69,0,0,0-.84-.23Z" transform="translate(-31.35 -32.69)"/><path class="cls-2" d="M449.63,210.87c0,8-3.42,14.5-7.63,14.5s-7.62-6.49-7.62-14.5,3.41-14.51,7.62-14.51S449.63,202.85,449.63,210.87Z" transform="translate(-31.35 -32.69)"/><path class="cls-3" d="M447.91,205.31c0,3.45-1.44,6.25-3.2,6.25s-3.2-2.8-3.2-6.25,1.43-6.25,3.2-6.25S447.91,201.86,447.91,205.31Z" transform="translate(-31.35 -32.69)"/><path class="cls-3" d="M440.31,209.3c0,1.25-.52,2.26-1.16,2.26s-1.15-1-1.15-2.26.51-2.26,1.15-2.26S440.31,208.05,440.31,209.3Z" transform="translate(-31.35 -32.69)"/><path class="cls-3" d="M443.83,214.8c0,1.25-.52,2.26-1.16,2.26s-1.16-1-1.16-2.26.52-2.26,1.16-2.26S443.83,213.55,443.83,214.8Z" transform="translate(-31.35 -32.69)"/><path class="cls-2" d="M500.35,210.87c0,8-3.41,14.5-7.62,14.5s-7.62-6.49-7.62-14.5,3.41-14.51,7.62-14.51S500.35,202.85,500.35,210.87Z" transform="translate(-31.35 -32.69)"/><path class="cls-3" d="M498.63,205.31c0,3.45-1.43,6.25-3.2,6.25s-3.19-2.8-3.19-6.25,1.43-6.25,3.19-6.25S498.63,201.86,498.63,205.31Z" transform="translate(-31.35 -32.69)"/><path class="cls-3" d="M491,209.3c0,1.25-.52,2.26-1.16,2.26s-1.16-1-1.16-2.26.52-2.26,1.16-2.26S491,208.05,491,209.3Z" transform="translate(-31.35 -32.69)"/><path class="cls-3" d="M494.55,214.8c0,1.25-.52,2.26-1.16,2.26s-1.15-1-1.15-2.26.52-2.26,1.15-2.26S494.55,213.55,494.55,214.8Z" transform="translate(-31.35 -32.69)"/><path class="cls-4" d="M444.71,226.08c0,1.55-2.86,2.81-6.39,2.81s-6.39-1.26-6.39-2.81,2.86-2.81,6.39-2.81S444.71,224.53,444.71,226.08Z" transform="translate(-31.35 -32.69)"/><path class="cls-4" d="M502.81,226.08c0,1.55-2.87,2.81-6.4,2.81s-6.39-1.26-6.39-2.81,2.86-2.81,6.39-2.81S502.81,224.53,502.81,226.08Z" transform="translate(-31.35 -32.69)"/><path class="cls-6" d="M440.31,190.42s-6.32-1.29-7.91,5.07" transform="translate(-31.35 -32.69)"/><path class="cls-6" d="M493.39,190.42s6.33-1.29,7.92,5.07" transform="translate(-31.35 -32.69)"/><path class="cls-9" d="M484.45,211.42" transform="translate(-31.35 -32.69)"/><path class="cls-4" d="M467.69,238.69c-3.59,0-6.39-4.31-6.39-9.8s2.8-9.8,6.39-9.8,6.39,4.31,6.39,9.8S471.27,238.69,467.69,238.69Z" transform="translate(-31.35 -32.69)"/><path class="cls-2" d="M467.69,220c3.05,0,5.52,4,5.52,8.94s-2.47,8.93-5.52,8.93-5.53-4-5.53-8.93,2.47-8.94,5.53-8.94m0-1.72c-4.07,0-7.25,4.68-7.25,10.66s3.18,10.66,7.25,10.66,7.25-4.69,7.25-10.66-3.19-10.66-7.25-10.66Z" transform="translate(-31.35 -32.69)"/><path class="cls-3" d="M471.85,223.89c-.51,0-1.08,0-1.7-.09s-1.6-.13-2.46-.13-1.72.07-2.47.13-1.19.09-1.7.09h0a.84.84,0,0,1-.73-.42.86.86,0,0,1,0-.85c1.21-2.25,3-3.54,4.94-3.54s3.72,1.29,4.93,3.54a.88.88,0,0,1,0,.85.87.87,0,0,1-.74.42Z" transform="translate(-31.35 -32.69)"/><path class="cls-2" d="M467.69,220c1.66,0,3.16,1.2,4.17,3.08-1.13,0-2.58-.22-4.17-.22s-3.05.21-4.18.22c1-1.88,2.51-3.08,4.18-3.08m0-1.72c-2.26,0-4.33,1.46-5.7,4a1.73,1.73,0,0,0,1.52,2.54h0c.55,0,1.14-.06,1.76-.1s1.56-.13,2.4-.13,1.62.07,2.39.13,1.21.09,1.76.1h0a1.73,1.73,0,0,0,1.52-2.54c-1.37-2.53-3.44-4-5.69-4Z" transform="translate(-31.35 -32.69)"/><path class="cls-4" d="M346.83,224.56c0,1.55-2.86,2.81-6.39,2.81s-6.4-1.26-6.4-2.81,2.87-2.81,6.4-2.81S346.83,223,346.83,224.56Z" transform="translate(-31.35 -32.69)"/><path class="cls-4" d="M404.92,224.56c0,1.55-2.86,2.81-6.39,2.81s-6.4-1.26-6.4-2.81,2.87-2.81,6.4-2.81S404.92,223,404.92,224.56Z" transform="translate(-31.35 -32.69)"/><path class="cls-9" d="M369.48,211.14" transform="translate(-31.35 -32.69)"/><path class="cls-6" d="M342.94,191.56s-6.32-1.29-7.91,5.07" transform="translate(-31.35 -32.69)"/><path class="cls-6" d="M396,191.56s6.33-1.29,7.92,5.07" transform="translate(-31.35 -32.69)"/><path class="cls-4" d="M369.48,237.54c-3.58,0-6.39-4.3-6.39-9.79s2.81-9.8,6.39-9.8,6.39,4.3,6.39,9.8S373.06,237.54,369.48,237.54Z" transform="translate(-31.35 -32.69)"/><path class="cls-2" d="M369.48,218.81c3.06,0,5.53,4,5.53,8.94s-2.47,8.93-5.53,8.93-5.53-4-5.53-8.93,2.48-8.94,5.53-8.94m0-1.72c-4.06,0-7.25,4.68-7.25,10.66s3.19,10.65,7.25,10.65,7.25-4.68,7.25-10.65-3.18-10.66-7.25-10.66Z" transform="translate(-31.35 -32.69)"/><path class="cls-3" d="M373.65,222.75c-.51,0-1.08-.05-1.7-.09s-1.6-.13-2.47-.13-1.71.07-2.46.13-1.19.09-1.7.09h0a.85.85,0,0,1-.76-1.26c1.21-2.25,3-3.54,4.93-3.54s3.73,1.29,4.94,3.54a.86.86,0,0,1,0,.85.83.83,0,0,1-.73.41Z" transform="translate(-31.35 -32.69)"/><path class="cls-2" d="M369.48,218.81c1.67,0,3.16,1.2,4.18,3.08-1.13,0-2.59-.22-4.18-.22s-3,.21-4.17.22c1-1.88,2.51-3.08,4.17-3.08m0-1.72c-2.25,0-4.33,1.45-5.69,4a1.72,1.72,0,0,0,1.52,2.53h0c.55,0,1.13-.05,1.75-.1.77-.06,1.57-.12,2.4-.12s1.63.06,2.4.12,1.21.1,1.76.1h0a1.71,1.71,0,0,0,1.51-2.53c-1.36-2.54-3.43-4-5.69-4Z" transform="translate(-31.35 -32.69)"/><rect class="cls-10" x="307.91" y="175.29" width="9.46" height="26.88"/><line class="cls-7" x1="302.97" y1="175.29" x2="320.67" y2="175.29"/><rect class="cls-10" x="358.88" y="175.29" width="9.47" height="26.88"/><line class="cls-7" x1="373.29" y1="175.29" x2="355.59" y2="175.29"/><path class="cls-4" d="M570.91,240.39c-4,0-6.2-.61-7.26-2s-.63-3.54-.07-5.7a18.77,18.77,0,0,0,.79-4.68,25.27,25.27,0,0,0-.5-4.35c-.43-2.46-.8-4.58.5-6.13,1.09-1.3,3.11-1.88,6.54-1.88,3.16,0,5.14.58,6.22,1.83,1.38,1.58,1.07,3.81.7,6.39a30.34,30.34,0,0,0-.37,4.14,35.06,35.06,0,0,0,.29,3.93c.31,2.69.57,5-.86,6.63C575.79,239.82,573.89,240.39,570.91,240.39Z" transform="translate(-31.35 -32.69)"/><path class="cls-2" d="M570.91,216.53c9.28,0,5.69,5.15,5.69,11.5s3.12,11.5-5.69,11.5c-11.35,0-5.68-5.15-5.68-11.5s-4.23-11.5,5.68-11.5m0-1.72c-3.71,0-5.93.67-7.2,2.18-1.56,1.86-1.14,4.28-.69,6.84a23.89,23.89,0,0,1,.48,4.2,17.73,17.73,0,0,1-.76,4.47c-.58,2.26-1.19,4.6.23,6.43,1.26,1.63,3.63,2.32,7.94,2.32,3.25,0,5.35-.66,6.62-2.08,1.69-1.9,1.39-4.53,1.07-7.31a33.65,33.65,0,0,1-.28-3.83,29.15,29.15,0,0,1,.37-4c.37-2.67.73-5.2-.91-7.07-1.26-1.46-3.44-2.13-6.87-2.13Z" transform="translate(-31.35 -32.69)"/><path class="cls-4" d="M547.33,224.38c0,1.55-2.86,2.81-6.39,2.81s-6.39-1.26-6.39-2.81,2.86-2.81,6.39-2.81S547.33,222.83,547.33,224.38Z" transform="translate(-31.35 -32.69)"/><path class="cls-4" d="M605.42,224.38c0,1.55-2.86,2.81-6.39,2.81s-6.39-1.26-6.39-2.81,2.86-2.81,6.39-2.81S605.42,222.83,605.42,224.38Z" transform="translate(-31.35 -32.69)"/><path class="cls-6" d="M542.93,188.71s-6.32-1.28-7.92,5.08" transform="translate(-31.35 -32.69)"/><path class="cls-6" d="M596,188.71s6.32-1.28,7.92,5.08" transform="translate(-31.35 -32.69)"/><path class="cls-3" d="M546.55,200c-6-2.45-11.12,6.79-10.55,11.69.75,6.22,10.55,9,14.32,4.15,7.73-9.43-5.46-23-12.63-10.37-2.64,4.9-.75,8.48,3.77,10.93,6.6,3.77,9.81-1.7,9.24-8.11s-6.79-9.8-10.74-4.33c-4.15,5.28-3.59,10.56,3.39,12.44,2.83.94,5.09.19,6.22-2.64" transform="translate(-31.35 -32.69)"/><path class="cls-2" d="M546.74,199.28c-5.21-1.75-9.19,3.14-10.74,7.59-1.67,4.78-.09,9.36,4.77,11.33,10.57,4.29,17-10.38,8.73-16.86-3.85-3-8.48-1.67-11.3,2-3.87,5.09-2.65,10.6,2.91,13.61C553,223.43,555.22,201.3,545,200.5c-5.3-.41-9.82,7.41-7.93,12,2.07,5.07,10.5,7,13.08,1.56.39-.82-.83-1.54-1.22-.72-1.7,3.58-5.75,3-8.55,1s-2.79-5-1.33-7.8c1.23-2.36,3.37-5.17,6.4-4.54s4.44,4.32,4.57,7.13c.09,2.09-.23,4.92-1.78,6.51-2.35,2.39-5.74.82-8-.85-2.5-1.84-3.6-4.39-2.66-7.39.82-2.6,3-5.47,5.79-6.19,9.58-2.5,12,15.87,1.72,16.37-4.69.23-9.11-3.35-8.3-8.25.72-4.32,4.44-10.39,9.57-8.68.86.29,1.23-1.07.37-1.36Z" transform="translate(-31.35 -32.69)"/><path class="cls-3" d="M593.11,200c6-2.45,11.12,6.79,10.55,11.69-.75,6.22-10.55,9-14.32,4.15-7.73-9.43,5.47-23,12.63-10.37,2.64,4.9.75,8.48-3.77,10.93-6.6,3.77-9.8-1.7-9.24-8.11s6.79-9.8,10.75-4.33c4.14,5.28,3.58,10.56-3.4,12.44-2.83.94-5.09.19-6.22-2.64" transform="translate(-31.35 -32.69)"/><path class="cls-2" d="M593.3,200.64c5.12-1.72,8.84,4.36,9.56,8.68.82,4.91-3.61,8.48-8.3,8.25-10.34-.5-7.86-18.87,1.72-16.37,2.76.72,5,3.59,5.79,6.19,1,3-.17,5.56-2.66,7.39-2.28,1.67-5.67,3.24-8,.85-1.56-1.6-1.87-4.42-1.78-6.51.13-2.81,1.41-6.46,4.57-7.13s5.17,2.17,6.4,4.54c1.46,2.81,1.43,5.82-1.32,7.8s-6.86,2.61-8.56-1c-.39-.82-1.61-.1-1.22.72,2.39,5,9.38,3.77,12.34-.25s-.28-11-4.54-12.86c-10.34-4.46-13,18.68-2.15,17.26,5.32-.69,10-5.8,8.3-11.21-1.46-4.57-6.11-8.82-11.1-6.93-9.43,3.57-7.07,19.92,3.6,18.85,5.17-.52,9.26-4.66,8.29-10-.92-5.11-5.37-11.66-11.3-9.67-.86.29-.49,1.65.38,1.36Z" transform="translate(-31.35 -32.69)"/><line class="cls-6" x1="505.65" y1="186.51" x2="505.65" y2="201.69"/><line class="cls-11" x1="508.58" y1="187.23" x2="508.58" y2="198.95"/><line class="cls-11" x1="511.57" y1="187.23" x2="511.57" y2="198.95"/><path class="cls-12" d="M285.61,75.41c0,4-4.92,7.3-11,7.3s-11-3.27-11-7.3" transform="translate(-31.35 -32.69)"/><path class="cls-2" d="M256.42,55.74c0,8-3.42,14.51-7.63,14.51s-7.62-6.5-7.62-14.51,3.41-14.51,7.62-14.51S256.42,47.73,256.42,55.74Z" transform="translate(-31.35 -32.69)"/><path class="cls-3" d="M254.69,50.19c0,3.45-1.43,6.24-3.19,6.24s-3.2-2.79-3.2-6.24,1.43-6.25,3.2-6.25S254.69,46.73,254.69,50.19Z" transform="translate(-31.35 -32.69)"/><path class="cls-3" d="M247.1,54.17c0,1.25-.52,2.26-1.16,2.26s-1.15-1-1.15-2.26.51-2.26,1.15-2.26S247.1,52.92,247.1,54.17Z" transform="translate(-31.35 -32.69)"/><path class="cls-3" d="M250.61,59.67c0,1.25-.51,2.27-1.15,2.27s-1.16-1-1.16-2.27.52-2.26,1.16-2.26S250.61,58.43,250.61,59.67Z" transform="translate(-31.35 -32.69)"/><path class="cls-2" d="M307.14,55.74c0,8-3.41,14.51-7.62,14.51s-7.62-6.5-7.62-14.51,3.41-14.51,7.62-14.51S307.14,47.73,307.14,55.74Z" transform="translate(-31.35 -32.69)"/><path class="cls-3" d="M305.42,50.19c0,3.45-1.43,6.24-3.2,6.24S299,53.64,299,50.19s1.43-6.25,3.19-6.25S305.42,46.73,305.42,50.19Z" transform="translate(-31.35 -32.69)"/><path class="cls-3" d="M297.83,54.17c0,1.25-.52,2.26-1.16,2.26s-1.16-1-1.16-2.26.52-2.26,1.16-2.26S297.83,52.92,297.83,54.17Z" transform="translate(-31.35 -32.69)"/><path class="cls-3" d="M301.34,59.67c0,1.25-.52,2.27-1.16,2.27s-1.15-1-1.15-2.27.52-2.26,1.15-2.26S301.34,58.43,301.34,59.67Z" transform="translate(-31.35 -32.69)"/><path class="cls-4" d="M251.5,72c0,1.55-2.86,2.81-6.39,2.81s-6.39-1.26-6.39-2.81,2.86-2.81,6.39-2.81S251.5,70.42,251.5,72Z" transform="translate(-31.35 -32.69)"/><path class="cls-4" d="M309.6,72c0,1.55-2.87,2.81-6.4,2.81s-6.39-1.26-6.39-2.81,2.86-2.81,6.39-2.81S309.6,70.42,309.6,72Z" transform="translate(-31.35 -32.69)"/><path class="cls-6" d="M247.1,33.57s-6.32-1.29-7.91,5.07" transform="translate(-31.35 -32.69)"/><path class="cls-6" d="M300.18,33.57s6.33-1.29,7.92,5.07" transform="translate(-31.35 -32.69)"/><path class="cls-4" d="M285.36,89.16a3.48,3.48,0,0,1-2.78-1.37l-3.35-4.38a.7.7,0,0,1-.14-.54.69.69,0,0,1,.28-.49l4.68-3.59a.74.74,0,0,1,.45-.15h.1a.71.71,0,0,1,.49.28l3.35,4.37a3.5,3.5,0,0,1-.65,4.9l-.31.24a3.46,3.46,0,0,1-2.12.72Z" transform="translate(-31.35 -32.69)"/><path class="cls-2" d="M284.5,79.38l3.35,4.37a2.76,2.76,0,0,1-.51,3.87l-.31.23a2.75,2.75,0,0,1-3.86-.51L279.82,83l4.68-3.58m0-1.48a1.49,1.49,0,0,0-.9.31l-4.68,3.58a1.52,1.52,0,0,0-.57,1,1.47,1.47,0,0,0,.3,1.09L282,88.24a4.24,4.24,0,0,0,5.93.78l.31-.23a4.23,4.23,0,0,0,.78-5.93l-3.35-4.38a1.52,1.52,0,0,0-1-.57Z" transform="translate(-31.35 -32.69)"/><line class="cls-13" x1="250.8" y1="48.48" x2="253.32" y2="51.76"/><path class="cls-2" d="M257,212.57c0,8-3.41,14.51-7.62,14.51s-7.62-6.49-7.62-14.51,3.41-14.5,7.62-14.5S257,204.56,257,212.57Z" transform="translate(-31.35 -32.69)"/><path class="cls-3" d="M255.29,207c0,3.45-1.43,6.25-3.19,6.25s-3.2-2.8-3.2-6.25,1.43-6.25,3.2-6.25S255.29,203.57,255.29,207Z" transform="translate(-31.35 -32.69)"/><path class="cls-3" d="M247.7,211c0,1.24-.52,2.26-1.16,2.26s-1.16-1-1.16-2.26.52-2.26,1.16-2.26S247.7,209.76,247.7,211Z" transform="translate(-31.35 -32.69)"/><path class="cls-3" d="M251.21,216.51c0,1.25-.51,2.26-1.15,2.26s-1.16-1-1.16-2.26.52-2.26,1.16-2.26S251.21,215.26,251.21,216.51Z" transform="translate(-31.35 -32.69)"/><path class="cls-2" d="M307.74,212.57c0,8-3.41,14.51-7.62,14.51s-7.63-6.49-7.63-14.51,3.42-14.5,7.63-14.5S307.74,204.56,307.74,212.57Z" transform="translate(-31.35 -32.69)"/><path class="cls-3" d="M306,207c0,3.45-1.43,6.25-3.2,6.25s-3.19-2.8-3.19-6.25,1.43-6.25,3.19-6.25S306,203.57,306,207Z" transform="translate(-31.35 -32.69)"/><path class="cls-3" d="M298.42,211c0,1.24-.52,2.26-1.15,2.26s-1.16-1-1.16-2.26.52-2.26,1.16-2.26S298.42,209.76,298.42,211Z" transform="translate(-31.35 -32.69)"/><path class="cls-3" d="M301.94,216.51c0,1.25-.52,2.26-1.16,2.26s-1.15-1-1.15-2.26.51-2.26,1.15-2.26S301.94,215.26,301.94,216.51Z" transform="translate(-31.35 -32.69)"/><path class="cls-4" d="M252.1,228.8c0,1.55-2.86,2.81-6.39,2.81s-6.39-1.26-6.39-2.81,2.86-2.81,6.39-2.81S252.1,227.25,252.1,228.8Z" transform="translate(-31.35 -32.69)"/><path class="cls-4" d="M310.19,228.8c0,1.55-2.86,2.81-6.39,2.81s-6.39-1.26-6.39-2.81,2.86-2.81,6.39-2.81S310.19,227.25,310.19,228.8Z" transform="translate(-31.35 -32.69)"/><path class="cls-6" d="M248.82,190.4s-6.32-1.29-7.91,5.07" transform="translate(-31.35 -32.69)"/><path class="cls-6" d="M304.92,195s-3.56,5.38-9.18,2" transform="translate(-31.35 -32.69)"/><path class="cls-12" d="M263.2,235.61a6.4,6.4,0,0,1,7.13-2.19c2.49.74,4.34,4.42,8.22,4.42a7.89,7.89,0,0,0,7.76-5.22" transform="translate(-31.35 -32.69)"/><path class="cls-4" d="M158.58,152.7c0,1.55-2.86,2.81-6.39,2.81s-6.4-1.26-6.4-2.81,2.87-2.81,6.4-2.81S158.58,151.15,158.58,152.7Z" transform="translate(-31.35 -32.69)"/><path class="cls-4" d="M216.67,152.7c0,1.55-2.86,2.81-6.39,2.81s-6.4-1.26-6.4-2.81,2.87-2.81,6.4-2.81S216.67,151.15,216.67,152.7Z" transform="translate(-31.35 -32.69)"/><path class="cls-6" d="M154.69,117s-6.32-1.28-7.91,5.08" transform="translate(-31.35 -32.69)"/><path class="cls-6" d="M207.77,117s6.33-1.28,7.92,5.08" transform="translate(-31.35 -32.69)"/><path class="cls-3" d="M181.29,165.49c-7.66,0-13.89-5.43-13.89-12.11,0-2.78,1.12-4.13,3.44-4.13a19,19,0,0,1,3.94.65,28.72,28.72,0,0,0,6.51,1,28.72,28.72,0,0,0,6.51-1,19,19,0,0,1,3.94-.65c2.32,0,3.44,1.35,3.44,4.13C195.18,160.06,189,165.49,181.29,165.49Z" transform="translate(-31.35 -32.69)"/><path class="cls-2" d="M191.74,150.11c1.62,0,2.58.75,2.58,3.27,0,6.21-5.83,11.25-13,11.25s-13-5-13-11.25c0-2.52,1-3.27,2.58-3.27,2.37,0,6.17,1.61,10.45,1.61s8.07-1.61,10.45-1.61m0-1.72h0a19.45,19.45,0,0,0-4.13.67,28.11,28.11,0,0,1-6.32.94,28,28,0,0,1-6.32-.94,19.55,19.55,0,0,0-4.13-.67c-1.61,0-4.3.65-4.3,5,0,7.15,6.61,13,14.75,13s14.75-5.82,14.75-13c0-4.34-2.69-5-4.3-5Z" transform="translate(-31.35 -32.69)"/><path class="cls-2" d="M168,152.34c0,.21,1.11,1.24,1.27,1.41a10.24,10.24,0,0,0,1.92,1.48,14,14,0,0,0,1.61.78c.35.14.76.29,1.07.45a11.07,11.07,0,0,1-6.11-1.23C167.39,155.05,168,152.34,168,152.34Z" transform="translate(-31.35 -32.69)"/><path class="cls-2" d="M194.48,152.34c.05.21-1.1,1.24-1.27,1.41a10.24,10.24,0,0,1-1.92,1.48,14,14,0,0,1-1.61.78c-.35.14-.76.29-1.07.45a11.12,11.12,0,0,0,6.12-1.23C195.07,155.05,194.48,152.34,194.48,152.34Z" transform="translate(-31.35 -32.69)"/><path class="cls-2" d="M176.37,157.21l.23-.05.59-.09c.24,0,.52,0,.82-.06s.61,0,.93,0l.47,0,.46,0,.81.07.33,0,.25,0,.23,0a1.35,1.35,0,0,1-.2.11l-.25.1-.32.12a7.67,7.67,0,0,1-.83.16c-.31,0-.64.05-1,0a8.21,8.21,0,0,1-1.78-.24l-.57-.19A1.34,1.34,0,0,1,176.37,157.21Z" transform="translate(-31.35 -32.69)"/><path class="cls-14" d="M189.16,135.92a19.69,19.69,0,0,0-7.91-1.51,17.7,17.7,0,0,0-7.91,1.51v-5.61h15.82Z" transform="translate(-31.35 -32.69)"/><path class="cls-15" d="M160.69,149.58C145,149.58,145,142,145,133.87c0-8.57,2.37-11.62,15.71-11.62,13,0,15.71,6.32,15.71,11.62C176.4,141.47,175.19,149.58,160.69,149.58Z" transform="translate(-31.35 -32.69)"/><path class="cls-2" d="M160.69,123.11c8.2,0,14.85,2.56,14.85,10.76s-1.71,14.85-14.85,14.85c-14.85,0-14.85-6.65-14.85-14.85s2-10.76,14.85-10.76m0-1.72c-13,0-16.57,2.68-16.57,12.48,0,8.15,0,16.57,16.57,16.57,14.56,0,16.57-8,16.57-16.57,0-5.69-2.87-12.48-16.57-12.48Z" transform="translate(-31.35 -32.69)"/><path class="cls-16" d="M171.34,125.51a14.89,14.89,0,0,0-5.21-1.94,111.22,111.22,0,0,1-19.9,17.07,8.7,8.7,0,0,0,2.57,5C157.56,140.84,166,134.07,171.34,125.51Z" transform="translate(-31.35 -32.69)"/><path class="cls-15" d="M201.77,149.58c-14.5,0-15.71-8.11-15.71-15.71,0-5.3,2.73-11.62,15.71-11.62,13.34,0,15.72,3,15.72,11.62C217.49,142,217.49,149.58,201.77,149.58Z" transform="translate(-31.35 -32.69)"/><path class="cls-2" d="M201.77,123.11c12.83,0,14.86,2.56,14.86,10.76s0,14.85-14.86,14.85c-13.14,0-14.85-6.65-14.85-14.85s6.65-10.76,14.85-10.76m0-1.72c-13.69,0-16.57,6.79-16.57,12.48,0,8.61,2,16.57,16.57,16.57,16.58,0,16.58-8.42,16.58-16.57,0-9.8-3.57-12.48-16.58-12.48Z" transform="translate(-31.35 -32.69)"/><path class="cls-16" d="M208.78,123.52a41.3,41.3,0,0,0-5.25-.39A33.7,33.7,0,0,1,187.75,141a9.6,9.6,0,0,0,3,4.72C200.09,141.81,207.19,133.51,208.78,123.52Z" transform="translate(-31.35 -32.69)"/><path class="cls-17" d="M148.54,125.09s-.28,3.72-2.7,3.72a3.13,3.13,0,0,1,2.7,3.39,3.13,3.13,0,0,1,2.71-3.39C148.83,128.81,148.54,125.09,148.54,125.09Z" transform="translate(-31.35 -32.69)"/><path class="cls-17" d="M190.72,125.09s-.29,3.72-2.71,3.72a3.13,3.13,0,0,1,2.71,3.39,3.13,3.13,0,0,1,2.7-3.39C191,128.81,190.72,125.09,190.72,125.09Z" transform="translate(-31.35 -32.69)"/><path class="cls-4" d="M158.59,227.1c0,1.55-2.86,2.81-6.39,2.81s-6.39-1.26-6.39-2.81,2.86-2.81,6.39-2.81S158.59,225.55,158.59,227.1Z" transform="translate(-31.35 -32.69)"/><path class="cls-4" d="M216.68,227.1c0,1.55-2.86,2.81-6.39,2.81s-6.39-1.26-6.39-2.81,2.86-2.81,6.39-2.81S216.68,225.55,216.68,227.1Z" transform="translate(-31.35 -32.69)"/><path class="cls-9" d="M181.25,213.68" transform="translate(-31.35 -32.69)"/><path class="cls-6" d="M154.7,194.09s-6.32-1.28-7.91,5.08" transform="translate(-31.35 -32.69)"/><path class="cls-6" d="M207.79,194.09s6.32-1.28,7.91,5.08" transform="translate(-31.35 -32.69)"/><line class="cls-7" x1="114.73" y1="177.83" x2="132.43" y2="177.83"/><line class="cls-7" x1="185.05" y1="177.83" x2="167.35" y2="177.83"/><path class="cls-3" d="M173.6,235c-1.69,0-3.58-.23-4.8-1.88-1-1.4-1.47-3.71-1.47-7.46,0-4.36,2.72-4.86,4.78-4.86a32.78,32.78,0,0,1,3.58.29,45.85,45.85,0,0,0,5.24.38,50.09,50.09,0,0,0,5.27-.37,37.37,37.37,0,0,1,3.82-.3c2.19,0,5.09.5,5.09,4.86,0,7.64-3.08,9.2-7.7,9.2-.88,0-1.82,0-2.8-.1s-2.22-.11-3.39-.11c-1.72,0-3.27.11-4.63.2C175.46,234.94,174.49,235,173.6,235Z" transform="translate(-31.35 -32.69)"/><path class="cls-2" d="M190,221.67c2.59,0,4.23.78,4.23,4,0,7.23-2.71,8.34-6.84,8.34-1.82,0-3.92-.21-6.19-.21-3.14,0-5.66.35-7.62.35-3.72,0-5.41-1.25-5.41-8.48,0-3.22,1.48-4,3.92-4,2.26,0,5.35.67,8.82.67s6.69-.67,9.09-.67m0-1.72h0a38.57,38.57,0,0,0-3.91.3,36.17,36.17,0,0,1-10.32,0,31.87,31.87,0,0,0-3.68-.3c-3.75,0-5.65,1.92-5.65,5.72,0,6.46,1.17,10.2,7.14,10.2.92,0,2-.07,3.05-.15,1.35-.1,2.88-.2,4.57-.2,1.15,0,2.26.06,3.34.11s1.95.1,2.85.1c6.08,0,8.56-2.91,8.56-10.06,0-3.8-2-5.72-5.95-5.72Z" transform="translate(-31.35 -32.69)"/><path class="cls-2" d="M167.34,225.79c0,.22,1.49.75,1.7.84a9.53,9.53,0,0,0,2.33.66,11.88,11.88,0,0,0,1.79.13,11.09,11.09,0,0,1,1.16,0,11.24,11.24,0,0,1-6.14,1.12C167.79,228.53,167.34,225.79,167.34,225.79Z" transform="translate(-31.35 -32.69)"/><path class="cls-2" d="M195.16,225.79c0,.22-1.5.75-1.71.84a9.53,9.53,0,0,1-2.33.66,11.85,11.85,0,0,1-1.78.13,10.94,10.94,0,0,0-1.16,0,11.18,11.18,0,0,0,6.13,1.12C194.7,228.53,195.16,225.79,195.16,225.79Z" transform="translate(-31.35 -32.69)"/><line class="cls-3" x1="145.96" y1="194.96" x2="149.95" y2="194.96"/><path class="cls-2" d="M177.31,227.65a4.68,4.68,0,0,1,.63-.21,5.95,5.95,0,0,1,2.74,0,3.42,3.42,0,0,1,.63.21,4.68,4.68,0,0,1-.63.21,6.06,6.06,0,0,1-1.37.16,6.7,6.7,0,0,1-1.37-.16A4.68,4.68,0,0,1,177.31,227.65Z" transform="translate(-31.35 -32.69)"/><line class="cls-3" x1="149.57" y1="194.96" x2="153.57" y2="194.96"/><path class="cls-2" d="M180.93,227.65a4.82,4.82,0,0,1,.62-.21,5.69,5.69,0,0,1,1.38-.16,5.54,5.54,0,0,1,1.37.16,3.47,3.47,0,0,1,.62.21,4.82,4.82,0,0,1-.62.21,6.06,6.06,0,0,1-1.37.16,6.89,6.89,0,0,1-1.38-.16A4.82,4.82,0,0,1,180.93,227.65Z" transform="translate(-31.35 -32.69)"/><ellipse class="cls-2" cx="23.38" cy="101.96" rx="7.62" ry="14.51"/><path class="cls-3" d="M60.63,129.1c0,3.45-1.43,6.25-3.19,6.25s-3.2-2.8-3.2-6.25,1.43-6.25,3.2-6.25S60.63,125.65,60.63,129.1Z" transform="translate(-31.35 -32.69)"/><path class="cls-3" d="M53,133.09c0,1.24-.52,2.26-1.16,2.26s-1.16-1-1.16-2.26.52-2.26,1.16-2.26S53,131.84,53,133.09Z" transform="translate(-31.35 -32.69)"/><path class="cls-3" d="M56.55,138.59c0,1.25-.52,2.26-1.15,2.26s-1.16-1-1.16-2.26.52-2.26,1.16-2.26S56.55,137.34,56.55,138.59Z" transform="translate(-31.35 -32.69)"/><ellipse class="cls-2" cx="74.1" cy="101.96" rx="7.62" ry="14.51"/><path class="cls-3" d="M111.36,129.1c0,3.45-1.43,6.25-3.2,6.25s-3.19-2.8-3.19-6.25,1.43-6.25,3.19-6.25S111.36,125.65,111.36,129.1Z" transform="translate(-31.35 -32.69)"/><path class="cls-3" d="M103.76,133.09c0,1.24-.52,2.26-1.15,2.26s-1.16-1-1.16-2.26.52-2.26,1.16-2.26S103.76,131.84,103.76,133.09Z" transform="translate(-31.35 -32.69)"/><path class="cls-3" d="M107.28,138.59c0,1.25-.52,2.26-1.16,2.26s-1.15-1-1.15-2.26.51-2.26,1.15-2.26S107.28,137.34,107.28,138.59Z" transform="translate(-31.35 -32.69)"/><path class="cls-4" d="M57.44,149.87c0,1.55-2.86,2.81-6.39,2.81s-6.39-1.26-6.39-2.81,2.86-2.81,6.39-2.81S57.44,148.32,57.44,149.87Z" transform="translate(-31.35 -32.69)"/><path class="cls-4" d="M115.53,149.87c0,1.55-2.86,2.81-6.39,2.81s-6.39-1.26-6.39-2.81,2.86-2.81,6.39-2.81S115.53,148.32,115.53,149.87Z" transform="translate(-31.35 -32.69)"/><path class="cls-6" d="M106.12,118.72s2.64,5.88,8.74,3.47" transform="translate(-31.35 -32.69)"/><path class="cls-6" d="M53.39,118.72s-2.64,5.88-8.74,3.47" transform="translate(-31.35 -32.69)"/><path class="cls-3" d="M80.41,162.66c-7.66,0-13.89-5.43-13.89-12.11,0-2.78,1.13-4.13,3.44-4.13a19,19,0,0,1,3.94.65,28.72,28.72,0,0,0,6.51,1,28.63,28.63,0,0,0,6.51-1,19,19,0,0,1,3.94-.65c2.32,0,3.45,1.35,3.45,4.13C94.31,157.23,88.07,162.66,80.41,162.66Z" transform="translate(-31.35 -32.69)"/><path class="cls-2" d="M90.86,147.28c1.63,0,2.58.75,2.58,3.27,0,6.21-5.83,11.25-13,11.25s-13-5-13-11.25c0-2.52,1-3.27,2.58-3.27,2.38,0,6.17,1.61,10.45,1.61s8.08-1.61,10.45-1.61m0-1.72h0a19.55,19.55,0,0,0-4.13.67,27.94,27.94,0,0,1-6.32.94,27.93,27.93,0,0,1-6.31-.94,19.63,19.63,0,0,0-4.14-.67c-1.61,0-4.3.65-4.3,5,0,7.15,6.62,13,14.75,13s14.76-5.82,14.76-13c0-4.34-2.7-5-4.31-5Z" transform="translate(-31.35 -32.69)"/><path class="cls-2" d="M67.1,149.5c0,.22,1.11,1.25,1.28,1.41a9.88,9.88,0,0,0,1.92,1.49,11.34,11.34,0,0,0,1.61.77c.34.14.76.3,1.07.46a11.21,11.21,0,0,1-6.12-1.23C66.52,152.22,67.1,149.51,67.1,149.5Z" transform="translate(-31.35 -32.69)"/><path class="cls-2" d="M93.61,149.5c0,.22-1.11,1.25-1.28,1.41a9.59,9.59,0,0,1-1.92,1.49,11.77,11.77,0,0,1-1.6.77c-.35.14-.77.3-1.07.46a11.17,11.17,0,0,0,6.11-1.23C94.2,152.22,93.61,149.51,93.61,149.5Z" transform="translate(-31.35 -32.69)"/><path class="cls-2" d="M75.5,154.38l.22,0,.59-.09c.24,0,.52-.05.82-.06s.62,0,.93,0l.48,0,.45,0,.81.07.33,0,.26,0,.23,0-.21.11-.24.1-.33.12c-.24,0-.52.12-.83.16s-.63,0-1,0a7.3,7.3,0,0,1-1-.08,7.46,7.46,0,0,1-.82-.16l-.57-.19Z" transform="translate(-31.35 -32.69)"/><path class="cls-18" d="M37.47,146.89c-3,0-5.42-3.46-5.42-7.88,0-4.1,4.61-12.52,4.81-12.88l.61-1.11.61,1.11c.2.36,4.81,8.78,4.81,12.88C42.89,143.43,40.51,146.89,37.47,146.89Z" transform="translate(-31.35 -32.69)"/><path class="cls-2" d="M37.47,126.47S42.19,135,42.19,139s-2.11,7.18-4.72,7.18S32.75,143,32.75,139s4.72-12.54,4.72-12.54m0-2.9-1.22,2.22c-.5.91-4.9,9-4.9,13.22,0,4.81,2.69,8.57,6.12,8.57s6.12-3.76,6.12-8.57c0-4.2-4.4-12.31-4.9-13.22l-1.22-2.22Z" transform="translate(-31.35 -32.69)"/><g class="cls-19"><path class="cls-17" d="M41.73,136.29a34,34,0,0,1-1.15,4.52,12.13,12.13,0,0,1-3.51,5.35,2.69,2.69,0,0,0,.4,0c2.61,0,4.72-3.22,4.72-7.18A10.3,10.3,0,0,0,41.73,136.29Z" transform="translate(-31.35 -32.69)"/></g><path class="cls-20" d="M37.27,128.28S34,134.38,34.13,136,36.48,134,37.27,128.28Z" transform="translate(-31.35 -32.69)"/><path class="cls-4" d="M153.9,72.82c0,1.55-2.86,2.8-6.39,2.8s-6.4-1.25-6.4-2.8S144,70,147.51,70,153.9,71.27,153.9,72.82Z" transform="translate(-31.35 -32.69)"/><path class="cls-4" d="M212,72.82c0,1.55-2.86,2.8-6.39,2.8s-6.39-1.25-6.39-2.8S202.07,70,205.6,70,212,71.27,212,72.82Z" transform="translate(-31.35 -32.69)"/><path class="cls-6" d="M149.5,34.41s-6.32-1.28-7.92,5.08" transform="translate(-31.35 -32.69)"/><path class="cls-6" d="M202.58,34.41s6.32-1.28,7.91,5.08" transform="translate(-31.35 -32.69)"/><path class="cls-3" d="M177.12,88.39c-7.27,0-13.18-5.16-13.18-11.49,0-2.64,1.06-3.92,3.26-3.92a18.11,18.11,0,0,1,3.74.62,21.41,21.41,0,0,0,12.35,0A18.21,18.21,0,0,1,187,73c2.2,0,3.27,1.28,3.27,3.92C190.3,83.23,184.38,88.39,177.12,88.39Z" transform="translate(-31.35 -32.69)"/><path class="cls-2" d="M187,73.8c1.54,0,2.45.71,2.45,3.1,0,5.89-5.53,10.67-12.36,10.67s-12.37-4.78-12.37-10.67c0-2.39.91-3.1,2.45-3.1,2.26,0,5.86,1.52,9.92,1.52s7.66-1.52,9.91-1.52m0-1.63h0a18.6,18.6,0,0,0-3.92.63,20.64,20.64,0,0,1-12,0,18.5,18.5,0,0,0-3.92-.63c-1.52,0-4.08.61-4.08,4.73,0,6.78,6.28,12.3,14,12.3s14-5.52,14-12.3c0-4.12-2.55-4.73-4.08-4.73Z" transform="translate(-31.35 -32.69)"/><path class="cls-4" d="M177.16,88.39c-6.68,0-12.31-4.36-13.09-10.13a.82.82,0,0,1,.35-.79.86.86,0,0,1,.46-.14.9.9,0,0,1,.39.1c2.81,1.55,7,2.44,11.54,2.44,4.92,0,9.49-1.07,12.22-2.85a.81.81,0,0,1,.45-.13.78.78,0,0,1,.42.11.8.8,0,0,1,.39.77C189.78,83.72,184,88.39,177.16,88.39Z" transform="translate(-31.35 -32.69)"/><path class="cls-2" d="M189.48,77.7c-.48,5.52-5.81,9.87-12.32,9.87-6.34,0-11.56-4.12-12.28-9.42a25.88,25.88,0,0,0,11.93,2.53c5.27,0,9.92-1.18,12.67-3m0-1.63a1.68,1.68,0,0,0-.89.26c-2.61,1.71-7,2.72-11.78,2.72-4.39,0-8.45-.85-11.14-2.33a1.66,1.66,0,0,0-1.71.08,1.65,1.65,0,0,0-.7,1.57c.84,6.17,6.81,10.83,13.9,10.83,7.27,0,13.4-5,14-11.36a1.65,1.65,0,0,0-.79-1.54,1.69,1.69,0,0,0-.84-.23Z" transform="translate(-31.35 -32.69)"/><path class="cls-4" d="M150.56,69.88a.8.8,0,0,1-.54-.21L138.46,59.34A7.14,7.14,0,0,1,148,48.7L150.56,51l2.86-2.56a7.12,7.12,0,0,1,10.07.56,7,7,0,0,1,1.81,5.16,7.11,7.11,0,0,1-2.37,4.92L151.11,69.67A.82.82,0,0,1,150.56,69.88Z" transform="translate(-31.35 -32.69)"/><path class="cls-2" d="M158.17,47.46a6.32,6.32,0,0,1,4.22,11L150.56,69.07,139,58.73a6.32,6.32,0,1,1,8.42-9.42l3.13,2.8,3.4-3a6.29,6.29,0,0,1,4.21-1.61m0-1.63h0a7.93,7.93,0,0,0-5.29,2l-2.32,2.07-2-1.82A7.95,7.95,0,1,0,137.92,60l11.55,10.33a1.62,1.62,0,0,0,2.18,0l11.83-10.57a8,8,0,0,0-5.31-13.88Z" transform="translate(-31.35 -32.69)"/><path class="cls-3" d="M162.64,50.75c1.16,2,1,4.18-.35,5s-3.4-.11-4.56-2.06-1-4.17.35-5S161.48,48.81,162.64,50.75Z" transform="translate(-31.35 -32.69)"/><path class="cls-3" d="M155.73,53.18c.33.72.22,1.48-.26,1.71s-1.15-.18-1.49-.9-.21-1.49.27-1.71S155.39,52.46,155.73,53.18Z" transform="translate(-31.35 -32.69)"/><path class="cls-3" d="M159.27,57.55a1,1,0,1,1-1-1A1,1,0,0,1,159.27,57.55Z" transform="translate(-31.35 -32.69)"/><path class="cls-4" d="M202.44,69.88a.8.8,0,0,1-.54-.21L190.35,59.34a7.14,7.14,0,0,1,9.51-10.64L202.44,51l2.86-2.56a7.13,7.13,0,0,1,11.88,5.72,7.06,7.06,0,0,1-2.36,4.92L203,69.67A.82.82,0,0,1,202.44,69.88Z" transform="translate(-31.35 -32.69)"/><path class="cls-2" d="M210.06,47.46a6.32,6.32,0,0,1,4.21,11L202.44,69.07,190.89,58.73a6.32,6.32,0,0,1,8.43-9.42l3.12,2.8,3.41-3a6.28,6.28,0,0,1,4.21-1.61m0-1.63h0a7.91,7.91,0,0,0-5.3,2l-2.32,2.07-2-1.82A7.95,7.95,0,1,0,189.8,60l11.55,10.33a1.62,1.62,0,0,0,2.18,0l11.83-10.57a8,8,0,0,0-5.3-13.88Z" transform="translate(-31.35 -32.69)"/><path class="cls-3" d="M214.53,50.75c1.16,2,1,4.18-.35,5s-3.4-.11-4.56-2.06-1-4.17.35-5S213.37,48.81,214.53,50.75Z" transform="translate(-31.35 -32.69)"/><path class="cls-3" d="M207.62,53.18c.33.72.22,1.48-.26,1.71s-1.15-.18-1.49-.9-.21-1.49.27-1.71S207.28,52.46,207.62,53.18Z" transform="translate(-31.35 -32.69)"/><circle class="cls-3" cx="178.84" cy="24.86" r="0.96"/><path class="cls-4" d="M51.65,72.46c0,1.55-2.87,2.81-6.4,2.81S38.86,74,38.86,72.46s2.86-2.81,6.39-2.81S51.65,70.91,51.65,72.46Z" transform="translate(-31.35 -32.69)"/><path class="cls-4" d="M109.74,72.46c0,1.55-2.87,2.81-6.4,2.81S97,74,97,72.46s2.86-2.81,6.39-2.81S109.74,70.91,109.74,72.46Z" transform="translate(-31.35 -32.69)"/><path class="cls-6" d="M47.24,34.06s-6.32-1.29-7.91,5.07" transform="translate(-31.35 -32.69)"/><path class="cls-6" d="M100.32,34.06s6.33-1.29,7.92,5.07" transform="translate(-31.35 -32.69)"/><path class="cls-4" d="M74.3,88.74c-7.64,0-13.85-5.41-13.85-12.06,0-2.75,1.11-4.09,3.4-4.09a19,19,0,0,1,3.93.65,28.72,28.72,0,0,0,6.52,1,28.72,28.72,0,0,0,6.52-1,18.8,18.8,0,0,1,3.93-.65c2.28,0,3.4,1.34,3.4,4.09C88.15,83.33,81.93,88.74,74.3,88.74Z" transform="translate(-31.35 -32.69)"/><path class="cls-2" d="M84.75,73.41c1.62,0,2.58.75,2.58,3.27,0,6.21-5.84,11.25-13,11.25s-13-5-13-11.25c0-2.52,1-3.27,2.58-3.27C66.22,73.41,70,75,74.3,75s8.07-1.61,10.45-1.61m0-1.63h0a19.57,19.57,0,0,0-4.12.67,28,28,0,0,1-6.33.94A28.12,28.12,0,0,1,68,72.45a19.39,19.39,0,0,0-4.11-.67c-1.93,0-4.22.85-4.22,4.9,0,7.1,6.58,12.88,14.67,12.88S89,83.78,89,76.68c0-4.05-2.29-4.9-4.21-4.9Z" transform="translate(-31.35 -32.69)"/><path class="cls-3" d="M82.43,81.68a.86.86,0,0,1-.81-.56l-2.38-6.57a.84.84,0,0,1,.05-.71.87.87,0,0,1,.57-.42l.94-.22a19,19,0,0,1,4-.65,3.17,3.17,0,0,1,.44,0,.86.86,0,0,1,.66.39.89.89,0,0,1,.08.76l-2.69,7.4A.85.85,0,0,1,82.43,81.68Z" transform="translate(-31.35 -32.69)"/><path class="cls-2" d="M84.75,73.41h.37l-2.69,7.4-2.38-6.56a25,25,0,0,1,4.7-.85m0-1.72a19.63,19.63,0,0,0-4.14.67l-.94.22a1.72,1.72,0,0,0-1.24,2.26l2.39,6.57a1.71,1.71,0,0,0,1.61,1.13h0a1.72,1.72,0,0,0,1.62-1.13L86.74,74a1.72,1.72,0,0,0-.17-1.51,1.69,1.69,0,0,0-1.31-.79l-.51,0Z" transform="translate(-31.35 -32.69)"/><path class="cls-3" d="M65.3,81.68a.86.86,0,0,1-.81-.56l-2.62-7.23a.87.87,0,0,1,.49-1.1,4.19,4.19,0,0,1,1.49-.24,19,19,0,0,1,3.94.65l.16,0a.85.85,0,0,1,.56.42.84.84,0,0,1,0,.71l-2.45,6.75a.85.85,0,0,1-.81.56Z" transform="translate(-31.35 -32.69)"/><path class="cls-2" d="M63.85,73.41a18.83,18.83,0,0,1,3.9.67L65.3,80.82,62.68,73.6a3,3,0,0,1,1.17-.19m0-1.72a5,5,0,0,0-1.8.3,1.72,1.72,0,0,0-1,2.19l2.62,7.23a1.73,1.73,0,0,0,3.24,0l2.45-6.75a1.7,1.7,0,0,0-1.23-2.26l-.16,0a19.55,19.55,0,0,0-4.13-.67Z" transform="translate(-31.35 -32.69)"/><polyline class="cls-21" points="7.19 17.99 24.89 23.54 7.66 32.97"/><polyline class="cls-21" points="77.51 17.99 59.81 23.54 77.04 32.97"/><path class="cls-2" d="M56.4,213.14c0,8-3.41,14.51-7.62,14.51s-7.62-6.49-7.62-14.51,3.41-14.5,7.62-14.5S56.4,205.13,56.4,213.14Z" transform="translate(-31.35 -32.69)"/><path class="cls-3" d="M54.68,207.59c0,3.45-1.43,6.25-3.2,6.25s-3.19-2.8-3.19-6.25,1.43-6.25,3.19-6.25S54.68,204.14,54.68,207.59Z" transform="translate(-31.35 -32.69)"/><path class="cls-3" d="M47.08,211.58c0,1.25-.51,2.26-1.15,2.26s-1.16-1-1.16-2.26.52-2.26,1.16-2.26S47.08,210.33,47.08,211.58Z" transform="translate(-31.35 -32.69)"/><path class="cls-3" d="M50.6,217.08c0,1.25-.52,2.26-1.16,2.26s-1.15-1-1.15-2.26.51-2.26,1.15-2.26S50.6,215.83,50.6,217.08Z" transform="translate(-31.35 -32.69)"/><path class="cls-2" d="M107.13,213.14c0,8-3.42,14.51-7.63,14.51s-7.62-6.49-7.62-14.51,3.41-14.5,7.62-14.5S107.13,205.13,107.13,213.14Z" transform="translate(-31.35 -32.69)"/><path class="cls-3" d="M105.41,207.59c0,3.45-1.44,6.25-3.2,6.25S99,211,99,207.59s1.43-6.25,3.2-6.25S105.41,204.14,105.41,207.59Z" transform="translate(-31.35 -32.69)"/><path class="cls-3" d="M97.81,211.58c0,1.25-.52,2.26-1.16,2.26s-1.15-1-1.15-2.26.52-2.26,1.15-2.26S97.81,210.33,97.81,211.58Z" transform="translate(-31.35 -32.69)"/><path class="cls-3" d="M101.33,217.08c0,1.25-.52,2.26-1.16,2.26s-1.16-1-1.16-2.26.52-2.26,1.16-2.26S101.33,215.83,101.33,217.08Z" transform="translate(-31.35 -32.69)"/><path class="cls-4" d="M51.49,228.36c0,1.55-2.86,2.81-6.39,2.81s-6.4-1.26-6.4-2.81,2.86-2.81,6.4-2.81S51.49,226.81,51.49,228.36Z" transform="translate(-31.35 -32.69)"/><path class="cls-4" d="M109.58,228.36c0,1.55-2.86,2.81-6.39,2.81s-6.4-1.26-6.4-2.81,2.87-2.81,6.4-2.81S109.58,226.81,109.58,228.36Z" transform="translate(-31.35 -32.69)"/><path class="cls-6" d="M47.08,192.69s-6.32-1.28-7.91,5.08" transform="translate(-31.35 -32.69)"/><path class="cls-6" d="M100.17,192.69s6.32-1.28,7.91,5.08" transform="translate(-31.35 -32.69)"/><path class="cls-2" d="M76.55,232.18c0,1.86-.9,3.37-2,3.37s-2-1.51-2-3.37.9-3.36,2-3.36S76.55,230.33,76.55,232.18Z" transform="translate(-31.35 -32.69)"/></g></g></svg>